{
    "asset" : {
        "generator" : "Khronos glTF Blender I/O v0.9.36",
        "version" : "2.0"
    },
    "scene" : 0,
    "scenes" : [
        {
            "name" : "Scene",
            "nodes" : [
                0,
                1,
                2,
                3,
                4,
                5,
                6,
                7
            ]
        }
    ],
    "nodes" : [
        {
            "name" : "Light",
            "rotation" : [
                0.16907575726509094,
                0.7558803558349609,
                -0.27217137813568115,
                0.570947527885437
            ],
            "translation" : [
                4.066193103790283,
                6.937695503234863,
                -1.1058423519134521
            ]
        },
        {
            "name" : "Camera",
            "rotation" : [
                0.483536034822464,
                0.33687159419059753,
                -0.20870360732078552,
                0.7804827094078064
            ],
            "translation" : [
                7.348839282989502,
                5.992142677307129,
                6.82540225982666
            ]
        },
        {
            "mesh" : 0,
            "name" : "Gt7Sj3Sa",
            "scale" : [
                0.002188337268307805,
                0.002188337268307805,
                0.002188337268307805
            ],
            "translation" : [
                -0.010052129626274109,
                1.0338337421417236,
                -0.1003885567188263
            ]
        },
        {
            "mesh" : 1,
            "name" : "Gt7Sj3Sa.001",
            "scale" : [
                0.002188337268307805,
                0.002188337268307805,
                0.002188337268307805
            ],
            "translation" : [
                -0.010052129626274109,
                1.0338337421417236,
                -0.1003885567188263
            ]
        },
        {
            "mesh" : 2,
            "name" : "Gt7Sj3Sa.002",
            "scale" : [
                0.002188337268307805,
                0.002188337268307805,
                0.002188337268307805
            ],
            "translation" : [
                -0.010052129626274109,
                1.0338337421417236,
                -0.1003885567188263
            ]
        },
        {
            "mesh" : 3,
            "name" : "Gt7Sj3Sa.003",
            "scale" : [
                0.002188337268307805,
                0.002188337268307805,
                0.002188337268307805
            ],
            "translation" : [
                -0.010052129626274109,
                1.0338337421417236,
                -0.1003885567188263
            ]
        },
        {
            "mesh" : 4,
            "name" : "Gt7Sj3Sa.004",
            "scale" : [
                0.002188337268307805,
                0.002188337268307805,
                0.002188337268307805
            ],
            "translation" : [
                -0.010052129626274109,
                1.0338337421417236,
                -0.1003885567188263
            ]
        },
        {
            "mesh" : 5,
            "name" : "Gt7Sj3Sa.005",
            "scale" : [
                0.002113120164722204,
                0.002113120164722204,
                0.002113120164722204
            ],
            "translation" : [
                -0.0105360746383667,
                1.0160874128341675,
                -0.09963281452655792
            ]
        }
    ],
    "materials" : [
        {
            "doubleSided" : true,
            "name" : "Material.006",
            "pbrMetallicRoughness" : {
                "baseColorTexture" : {
                    "index" : 0,
                    "texCoord" : 0
                },
                "metallicFactor" : 0,
                "roughnessFactor" : 0.5
            }
        },
        {
            "doubleSided" : true,
            "name" : "Material.002",
            "pbrMetallicRoughness" : {
                "baseColorTexture" : {
                    "index" : 1,
                    "texCoord" : 0
                },
                "metallicFactor" : 0,
                "roughnessFactor" : 0.5
            }
        },
        {
            "doubleSided" : true,
            "name" : "Material.004",
            "pbrMetallicRoughness" : {
                "baseColorTexture" : {
                    "index" : 2,
                    "texCoord" : 0
                },
                "metallicFactor" : 0,
                "roughnessFactor" : 0.5
            }
        },
        {
            "doubleSided" : true,
            "name" : "Material.005",
            "pbrMetallicRoughness" : {
                "baseColorTexture" : {
                    "index" : 3,
                    "texCoord" : 0
                },
                "metallicFactor" : 0,
                "roughnessFactor" : 0.5
            }
        },
        {
            "doubleSided" : true,
            "name" : "Material.001",
            "pbrMetallicRoughness" : {
                "baseColorTexture" : {
                    "index" : 4,
                    "texCoord" : 0
                },
                "metallicFactor" : 0,
                "roughnessFactor" : 0.5
            }
        },
        {
            "doubleSided" : true,
            "name" : "Material.003",
            "pbrMetallicRoughness" : {
                "baseColorTexture" : {
                    "index" : 5,
                    "texCoord" : 0
                },
                "metallicFactor" : 0,
                "roughnessFactor" : 0.5
            }
        }
    ],
    "meshes" : [
        {
            "name" : "Gt7Sj3Sa",
            "primitives" : [
                {
                    "attributes" : {
                        "POSITION" : 0,
                        "NORMAL" : 1,
                        "TEXCOORD_0" : 2
                    },
                    "indices" : 3,
                    "material" : 0
                }
            ]
        },
        {
            "name" : "Gt7Sj3Sa.001",
            "primitives" : [
                {
                    "attributes" : {
                        "POSITION" : 4,
                        "NORMAL" : 5,
                        "TEXCOORD_0" : 6
                    },
                    "indices" : 7,
                    "material" : 1
                }
            ]
        },
        {
            "name" : "Gt7Sj3Sa.002",
            "primitives" : [
                {
                    "attributes" : {
                        "POSITION" : 8,
                        "NORMAL" : 9,
                        "TEXCOORD_0" : 10
                    },
                    "indices" : 11,
                    "material" : 2
                }
            ]
        },
        {
            "name" : "Gt7Sj3Sa.003",
            "primitives" : [
                {
                    "attributes" : {
                        "POSITION" : 12,
                        "NORMAL" : 13,
                        "TEXCOORD_0" : 14
                    },
                    "indices" : 15,
                    "material" : 3
                }
            ]
        },
        {
            "name" : "Gt7Sj3Sa.004",
            "primitives" : [
                {
                    "attributes" : {
                        "POSITION" : 16,
                        "NORMAL" : 17,
                        "TEXCOORD_0" : 18
                    },
                    "indices" : 19,
                    "material" : 4
                }
            ]
        },
        {
            "name" : "Gt7Sj3Sa.005",
            "primitives" : [
                {
                    "attributes" : {
                        "POSITION" : 20,
                        "NORMAL" : 21,
                        "TEXCOORD_0" : 22
                    },
                    "indices" : 23,
                    "material" : 5
                }
            ]
        }
    ],
    "textures" : [
        {
            "source" : 0
        },
        {
            "source" : 1
        },
        {
            "source" : 2
        },
        {
            "source" : 2
        },
        {
            "source" : 3
        },
        {
            "source" : 4
        }
    ],
    "images" : [
        {
            "bufferView" : 4,
            "mimeType" : "image/png",
            "name" : "Material"
        },
        {
            "bufferView" : 9,
            "mimeType" : "image/png",
            "name" : "Material"
        },
        {
            "bufferView" : 14,
            "mimeType" : "image/png",
            "name" : "Material"
        },
        {
            "bufferView" : 23,
            "mimeType" : "image/png",
            "name" : "Material"
        },
        {
            "bufferView" : 28,
            "mimeType" : "image/png",
            "name" : "Material"
        }
    ],
    "accessors" : [
        {
            "bufferView" : 0,
            "componentType" : 5126,
            "count" : 45121,
            "max" : [
                97.77558898925781,
                72.41938781738281,
                109.06371307373047
            ],
            "min" : [
                -97.77558898925781,
                -420,
                -236.15280151367188
            ],
            "type" : "VEC3"
        },
        {
            "bufferView" : 1,
            "componentType" : 5126,
            "count" : 45121,
            "type" : "VEC3"
        },
        {
            "bufferView" : 2,
            "componentType" : 5126,
            "count" : 45121,
            "type" : "VEC2"
        },
        {
            "bufferView" : 3,
            "componentType" : 5123,
            "count" : 45192,
            "type" : "SCALAR"
        },
        {
            "bufferView" : 5,
            "componentType" : 5126,
            "count" : 840,
            "max" : [
                55,
                275.6870422363281,
                57
            ],
            "min" : [
                -55,
                -294.79998779296875,
                -53
            ],
            "type" : "VEC3"
        },
        {
            "bufferView" : 6,
            "componentType" : 5126,
            "count" : 840,
            "type" : "VEC3"
        },
        {
            "bufferView" : 7,
            "componentType" : 5126,
            "count" : 840,
            "type" : "VEC2"
        },
        {
            "bufferView" : 8,
            "componentType" : 5123,
            "count" : 840,
            "type" : "SCALAR"
        },
        {
            "bufferView" : 10,
            "componentType" : 5126,
            "count" : 5854,
            "max" : [
                99.77558898925781,
                87.71466064453125,
                0
            ],
            "min" : [
                -99.77558898925781,
                -124.71466064453125,
                -100
            ],
            "type" : "VEC3"
        },
        {
            "bufferView" : 11,
            "componentType" : 5126,
            "count" : 5854,
            "type" : "VEC3"
        },
        {
            "bufferView" : 12,
            "componentType" : 5126,
            "count" : 5854,
            "type" : "VEC2"
        },
        {
            "bufferView" : 13,
            "componentType" : 5123,
            "count" : 5856,
            "type" : "SCALAR"
        },
        {
            "bufferView" : 15,
            "componentType" : 5126,
            "count" : 7286,
            "max" : [
                61,
                -313,
                117.82518005371094
            ],
            "min" : [
                -61,
                -418.5073547363281,
                -20
            ],
            "type" : "VEC3"
        },
        {
            "bufferView" : 16,
            "componentType" : 5126,
            "count" : 7286,
            "type" : "VEC3"
        },
        {
            "bufferView" : 17,
            "componentType" : 5126,
            "count" : 7286,
            "type" : "VEC2"
        },
        {
            "bufferView" : 18,
            "componentType" : 5123,
            "count" : 7296,
            "type" : "SCALAR"
        },
        {
            "bufferView" : 19,
            "componentType" : 5126,
            "count" : 216,
            "max" : [
                13.90778636932373,
                -358.5,
                164.39938354492188
            ],
            "min" : [
                -13.894338607788086,
                -386.5,
                29.74494171142578
            ],
            "type" : "VEC3"
        },
        {
            "bufferView" : 20,
            "componentType" : 5126,
            "count" : 216,
            "type" : "VEC3"
        },
        {
            "bufferView" : 21,
            "componentType" : 5126,
            "count" : 216,
            "type" : "VEC2"
        },
        {
            "bufferView" : 22,
            "componentType" : 5123,
            "count" : 216,
            "type" : "SCALAR"
        },
        {
            "bufferView" : 24,
            "componentType" : 5126,
            "count" : 556,
            "max" : [
                49,
                -221.44039916992188,
                51
            ],
            "min" : [
                -49,
                -241.44039916992188,
                -47
            ],
            "type" : "VEC3"
        },
        {
            "bufferView" : 25,
            "componentType" : 5126,
            "count" : 556,
            "type" : "VEC3"
        },
        {
            "bufferView" : 26,
            "componentType" : 5126,
            "count" : 556,
            "type" : "VEC2"
        },
        {
            "bufferView" : 27,
            "componentType" : 5123,
            "count" : 576,
            "type" : "SCALAR"
        }
    ],
    "bufferViews" : [
        {
            "buffer" : 0,
            "byteLength" : 541452,
            "byteOffset" : 0
        },
        {
            "buffer" : 0,
            "byteLength" : 541452,
            "byteOffset" : 541452
        },
        {
            "buffer" : 0,
            "byteLength" : 360968,
            "byteOffset" : 1082904
        },
        {
            "buffer" : 0,
            "byteLength" : 90384,
            "byteOffset" : 1443872
        },
        {
            "buffer" : 0,
            "byteLength" : 20565,
            "byteOffset" : 1534256
        },
        {
            "buffer" : 0,
            "byteLength" : 10080,
            "byteOffset" : 1554824
        },
        {
            "buffer" : 0,
            "byteLength" : 10080,
            "byteOffset" : 1564904
        },
        {
            "buffer" : 0,
            "byteLength" : 6720,
            "byteOffset" : 1574984
        },
        {
            "buffer" : 0,
            "byteLength" : 1680,
            "byteOffset" : 1581704
        },
        {
            "buffer" : 0,
            "byteLength" : 20565,
            "byteOffset" : 1583384
        },
        {
            "buffer" : 0,
            "byteLength" : 70248,
            "byteOffset" : 1603952
        },
        {
            "buffer" : 0,
            "byteLength" : 70248,
            "byteOffset" : 1674200
        },
        {
            "buffer" : 0,
            "byteLength" : 46832,
            "byteOffset" : 1744448
        },
        {
            "buffer" : 0,
            "byteLength" : 11712,
            "byteOffset" : 1791280
        },
        {
            "buffer" : 0,
            "byteLength" : 20565,
            "byteOffset" : 1802992
        },
        {
            "buffer" : 0,
            "byteLength" : 87432,
            "byteOffset" : 1823560
        },
        {
            "buffer" : 0,
            "byteLength" : 87432,
            "byteOffset" : 1910992
        },
        {
            "buffer" : 0,
            "byteLength" : 58288,
            "byteOffset" : 1998424
        },
        {
            "buffer" : 0,
            "byteLength" : 14592,
            "byteOffset" : 2056712
        },
        {
            "buffer" : 0,
            "byteLength" : 2592,
            "byteOffset" : 2071304
        },
        {
            "buffer" : 0,
            "byteLength" : 2592,
            "byteOffset" : 2073896
        },
        {
            "buffer" : 0,
            "byteLength" : 1728,
            "byteOffset" : 2076488
        },
        {
            "buffer" : 0,
            "byteLength" : 432,
            "byteOffset" : 2078216
        },
        {
            "buffer" : 0,
            "byteLength" : 20567,
            "byteOffset" : 2078648
        },
        {
            "buffer" : 0,
            "byteLength" : 6672,
            "byteOffset" : 2099216
        },
        {
            "buffer" : 0,
            "byteLength" : 6672,
            "byteOffset" : 2105888
        },
        {
            "buffer" : 0,
            "byteLength" : 4448,
            "byteOffset" : 2112560
        },
        {
            "buffer" : 0,
            "byteLength" : 1152,
            "byteOffset" : 2117008
        },
        {
            "buffer" : 0,
            "byteLength" : 20559,
            "byteOffset" : 2118160
        }
    ],
    "buffers" : [
        {
            "byteLength" : 2138720,
            "uri" : "data:application/octet-stream;base64,"
        }
    ]
}
