{
    "asset" : {
        "generator" : "Khronos glTF Blender I/O v0.9.36",
        "version" : "2.0"
    },
    "scene" : 0,
    "scenes" : [
        {
            "name" : "Scene",
            "nodes" : [
                0,
                1,
                2,
                3,
                4,
                5,
                6,
                7
            ]
        }
    ],
    "nodes" : [
        {
            "name" : "Light",
            "rotation" : [
                0.16907575726509094,
                0.7558803558349609,
                -0.27217137813568115,
                0.570947527885437
            ],
            "translation" : [
                4.076245307922363,
                5.903861999511719,
                -1.0054539442062378
            ]
        },
        {
            "name" : "Camera",
            "rotation" : [
                0.483536034822464,
                0.33687159419059753,
                -0.20870360732078552,
                0.7804827094078064
            ],
            "translation" : [
                7.358891487121582,
                4.958309173583984,
                6.925790786743164
            ]
        },
        {
            "mesh" : 0,
            "name" : "Gt7Sj3Sa",
            "scale" : [
                0.004508452955633402,
                0.004508452955633402,
                0.004508452955633402
            ],
            "translation" : [
                0,
                1.9584970474243164,
                0
            ]
        },
        {
            "mesh" : 1,
            "name" : "Gt7Sj3Sa.001",
            "scale" : [
                0.004508452955633402,
                0.004508452955633402,
                0.004508452955633402
            ],
            "translation" : [
                0,
                1.9584970474243164,
                0
            ]
        },
        {
            "mesh" : 2,
            "name" : "Gt7Sj3Sa.002",
            "scale" : [
                0.0041815792210400105,
                0.0041815792210400105,
                0.0041815792210400105
            ],
            "translation" : [
                0.026647422462701797,
                1.8857512474060059,
                0.005749414674937725
            ]
        },
        {
            "mesh" : 3,
            "name" : "Gt7Sj3Sa.003",
            "scale" : [
                0.004508452955633402,
                0.004508452955633402,
                0.004508452955633402
            ],
            "translation" : [
                0,
                1.9584970474243164,
                0
            ]
        },
        {
            "mesh" : 4,
            "name" : "Gt7Sj3Sa.004",
            "scale" : [
                0.004508452955633402,
                0.004508452955633402,
                0.004508452955633402
            ],
            "translation" : [
                0,
                1.9584970474243164,
                0
            ]
        },
        {
            "mesh" : 5,
            "name" : "Gt7Sj3Sa.005",
            "scale" : [
                0.004508452955633402,
                0.004508452955633402,
                0.004508452955633402
            ],
            "translation" : [
                0,
                1.9584970474243164,
                0
            ]
        }
    ],
    "materials" : [
        {
            "doubleSided" : true,
            "name" : "Material.001",
            "pbrMetallicRoughness" : {
                "baseColorTexture" : {
                    "index" : 0,
                    "texCoord" : 0
                },
                "metallicFactor" : 0,
                "roughnessFactor" : 0.5
            }
        },
        {
            "doubleSided" : true,
            "name" : "Material.004",
            "pbrMetallicRoughness" : {
                "baseColorTexture" : {
                    "index" : 1,
                    "texCoord" : 0
                },
                "metallicFactor" : 0,
                "roughnessFactor" : 0.5
            }
        },
        {
            "doubleSided" : true,
            "name" : "Material.003",
            "pbrMetallicRoughness" : {
                "baseColorTexture" : {
                    "index" : 2,
                    "texCoord" : 0
                },
                "metallicFactor" : 0,
                "roughnessFactor" : 0.5
            }
        },
        {
            "doubleSided" : true,
            "name" : "Material.002",
            "pbrMetallicRoughness" : {
                "baseColorTexture" : {
                    "index" : 3,
                    "texCoord" : 0
                },
                "metallicFactor" : 0,
                "roughnessFactor" : 0.5
            }
        }
    ],
    "meshes" : [
        {
            "name" : "Gt7Sj3Sa",
            "primitives" : [
                {
                    "attributes" : {
                        "POSITION" : 0,
                        "NORMAL" : 1,
                        "TEXCOORD_0" : 2
                    },
                    "indices" : 3,
                    "material" : 0
                }
            ]
        },
        {
            "name" : "Gt7Sj3Sa.001",
            "primitives" : [
                {
                    "attributes" : {
                        "POSITION" : 4,
                        "NORMAL" : 5
                    },
                    "indices" : 6
                }
            ]
        },
        {
            "name" : "Gt7Sj3Sa.002",
            "primitives" : [
                {
                    "attributes" : {
                        "POSITION" : 7,
                        "NORMAL" : 8,
                        "TEXCOORD_0" : 9
                    },
                    "indices" : 10,
                    "material" : 1
                }
            ]
        },
        {
            "name" : "Gt7Sj3Sa.003",
            "primitives" : [
                {
                    "attributes" : {
                        "POSITION" : 11,
                        "NORMAL" : 12,
                        "TEXCOORD_0" : 13
                    },
                    "indices" : 14,
                    "material" : 2
                }
            ]
        },
        {
            "name" : "Gt7Sj3Sa.004",
            "primitives" : [
                {
                    "attributes" : {
                        "POSITION" : 15,
                        "NORMAL" : 16,
                        "TEXCOORD_0" : 17
                    },
                    "indices" : 18,
                    "material" : 3
                }
            ]
        },
        {
            "name" : "Gt7Sj3Sa.005",
            "primitives" : [
                {
                    "attributes" : {
                        "POSITION" : 19,
                        "NORMAL" : 20,
                        "TEXCOORD_0" : 21
                    },
                    "indices" : 22,
                    "material" : 0
                }
            ]
        }
    ],
    "textures" : [
        {
            "source" : 0
        },
        {
            "source" : 1
        },
        {
            "source" : 2
        },
        {
            "source" : 2
        }
    ],
    "images" : [
        {
            "bufferView" : 4,
            "mimeType" : "image/png",
            "name" : "Material"
        },
        {
            "bufferView" : 12,
            "mimeType" : "image/png",
            "name" : "Material"
        },
        {
            "bufferView" : 17,
            "mimeType" : "image/png",
            "name" : "Material"
        }
    ],
    "accessors" : [
        {
            "bufferView" : 0,
            "componentType" : 5126,
            "count" : 45106,
            "max" : [
                97.77558898925781,
                72.41938781738281,
                109.06371307373047
            ],
            "min" : [
                -97.77558898925781,
                -420,
                -236.15280151367188
            ],
            "type" : "VEC3"
        },
        {
            "bufferView" : 1,
            "componentType" : 5126,
            "count" : 45106,
            "type" : "VEC3"
        },
        {
            "bufferView" : 2,
            "componentType" : 5126,
            "count" : 45106,
            "type" : "VEC2"
        },
        {
            "bufferView" : 3,
            "componentType" : 5123,
            "count" : 45192,
            "type" : "SCALAR"
        },
        {
            "bufferView" : 5,
            "componentType" : 5126,
            "count" : 802,
            "max" : [
                55,
                275.6870422363281,
                57
            ],
            "min" : [
                -55,
                -294.79998779296875,
                -53
            ],
            "type" : "VEC3"
        },
        {
            "bufferView" : 6,
            "componentType" : 5126,
            "count" : 802,
            "type" : "VEC3"
        },
        {
            "bufferView" : 7,
            "componentType" : 5123,
            "count" : 840,
            "type" : "SCALAR"
        },
        {
            "bufferView" : 8,
            "componentType" : 5126,
            "count" : 556,
            "max" : [
                49,
                -221.44039916992188,
                51
            ],
            "min" : [
                -49,
                -241.44039916992188,
                -47
            ],
            "type" : "VEC3"
        },
        {
            "bufferView" : 9,
            "componentType" : 5126,
            "count" : 556,
            "type" : "VEC3"
        },
        {
            "bufferView" : 10,
            "componentType" : 5126,
            "count" : 556,
            "type" : "VEC2"
        },
        {
            "bufferView" : 11,
            "componentType" : 5123,
            "count" : 576,
            "type" : "SCALAR"
        },
        {
            "bufferView" : 13,
            "componentType" : 5126,
            "count" : 7286,
            "max" : [
                61,
                -313,
                117.82518005371094
            ],
            "min" : [
                -61,
                -418.5073547363281,
                -20
            ],
            "type" : "VEC3"
        },
        {
            "bufferView" : 14,
            "componentType" : 5126,
            "count" : 7286,
            "type" : "VEC3"
        },
        {
            "bufferView" : 15,
            "componentType" : 5126,
            "count" : 7286,
            "type" : "VEC2"
        },
        {
            "bufferView" : 16,
            "componentType" : 5123,
            "count" : 7296,
            "type" : "SCALAR"
        },
        {
            "bufferView" : 18,
            "componentType" : 5126,
            "count" : 5854,
            "max" : [
                99.77558898925781,
                87.71466064453125,
                0
            ],
            "min" : [
                -99.77558898925781,
                -124.71466064453125,
                -100
            ],
            "type" : "VEC3"
        },
        {
            "bufferView" : 19,
            "componentType" : 5126,
            "count" : 5854,
            "type" : "VEC3"
        },
        {
            "bufferView" : 20,
            "componentType" : 5126,
            "count" : 5854,
            "type" : "VEC2"
        },
        {
            "bufferView" : 21,
            "componentType" : 5123,
            "count" : 5856,
            "type" : "SCALAR"
        },
        {
            "bufferView" : 22,
            "componentType" : 5126,
            "count" : 216,
            "max" : [
                13.90778636932373,
                -358.5,
                164.39938354492188
            ],
            "min" : [
                -13.894338607788086,
                -386.5,
                29.74494171142578
            ],
            "type" : "VEC3"
        },
        {
            "bufferView" : 23,
            "componentType" : 5126,
            "count" : 216,
            "type" : "VEC3"
        },
        {
            "bufferView" : 24,
            "componentType" : 5126,
            "count" : 216,
            "type" : "VEC2"
        },
        {
            "bufferView" : 25,
            "componentType" : 5123,
            "count" : 216,
            "type" : "SCALAR"
        }
    ],
    "bufferViews" : [
        {
            "buffer" : 0,
            "byteLength" : 541272,
            "byteOffset" : 0
        },
        {
            "buffer" : 0,
            "byteLength" : 541272,
            "byteOffset" : 541272
        },
        {
            "buffer" : 0,
            "byteLength" : 360848,
            "byteOffset" : 1082544
        },
        {
            "buffer" : 0,
            "byteLength" : 90384,
            "byteOffset" : 1443392
        },
        {
            "buffer" : 0,
            "byteLength" : 20565,
            "byteOffset" : 1533776
        },
        {
            "buffer" : 0,
            "byteLength" : 9624,
            "byteOffset" : 1554344
        },
        {
            "buffer" : 0,
            "byteLength" : 9624,
            "byteOffset" : 1563968
        },
        {
            "buffer" : 0,
            "byteLength" : 1680,
            "byteOffset" : 1573592
        },
        {
            "buffer" : 0,
            "byteLength" : 6672,
            "byteOffset" : 1575272
        },
        {
            "buffer" : 0,
            "byteLength" : 6672,
            "byteOffset" : 1581944
        },
        {
            "buffer" : 0,
            "byteLength" : 4448,
            "byteOffset" : 1588616
        },
        {
            "buffer" : 0,
            "byteLength" : 1152,
            "byteOffset" : 1593064
        },
        {
            "buffer" : 0,
            "byteLength" : 20559,
            "byteOffset" : 1594216
        },
        {
            "buffer" : 0,
            "byteLength" : 87432,
            "byteOffset" : 1614776
        },
        {
            "buffer" : 0,
            "byteLength" : 87432,
            "byteOffset" : 1702208
        },
        {
            "buffer" : 0,
            "byteLength" : 58288,
            "byteOffset" : 1789640
        },
        {
            "buffer" : 0,
            "byteLength" : 14592,
            "byteOffset" : 1847928
        },
        {
            "buffer" : 0,
            "byteLength" : 20565,
            "byteOffset" : 1862520
        },
        {
            "buffer" : 0,
            "byteLength" : 70248,
            "byteOffset" : 1883088
        },
        {
            "buffer" : 0,
            "byteLength" : 70248,
            "byteOffset" : 1953336
        },
        {
            "buffer" : 0,
            "byteLength" : 46832,
            "byteOffset" : 2023584
        },
        {
            "buffer" : 0,
            "byteLength" : 11712,
            "byteOffset" : 2070416
        },
        {
            "buffer" : 0,
            "byteLength" : 2592,
            "byteOffset" : 2082128
        },
        {
            "buffer" : 0,
            "byteLength" : 2592,
            "byteOffset" : 2084720
        },
        {
            "buffer" : 0,
            "byteLength" : 1728,
            "byteOffset" : 2087312
        },
        {
            "buffer" : 0,
            "byteLength" : 432,
            "byteOffset" : 2089040
        }
    ],
    "buffers" : [
        {
            "byteLength" : 2089472,
            "uri" : "data:application/octet-stream;base64,"
        }
    ]
}
