{
    "asset" : {
        "generator" : "Khronos glTF Blender I/O v0.9.36",
        "version" : "2.0"
    },
    "scene" : 0,
    "scenes" : [
        {
            "name" : "Scene",
            "nodes" : [
                0,
                1,
                2,
                3,
                4,
                5,
                6
            ]
        }
    ],
    "nodes" : [
        {
            "name" : "Light",
            "rotation" : [
                0.16907575726509094,
                0.7558803558349609,
                -0.27217137813568115,
                0.570947527885437
            ],
            "scale" : [
                0.022468052804470062,
                0.022468052804470062,
                0.022468052804470062
            ],
            "translation" : [
                6.726120948791504,
                5.775387287139893,
                16.77538299560547
            ]
        },
        {
            "name" : "Camera",
            "rotation" : [
                0.483536034822464,
                0.33687159419059753,
                -0.20870360732078552,
                0.7804827094078064
            ],
            "scale" : [
                0.022468052804470062,
                0.02246805839240551,
                0.022468052804470062
            ],
            "translation" : [
                6.799875736236572,
                5.7541422843933105,
                16.953582763671875
            ]
        },
        {
            "mesh" : 0,
            "name" : "Pisacable M45 V2",
            "rotation" : [
                0.7071067690849304,
                0,
                0,
                0.7071067690849304
            ],
            "scale" : [
                0.022468052804470062,
                0.022468052804470062,
                0.022468052804470062
            ]
        },
        {
            "mesh" : 1,
            "name" : "Rc2P4A",
            "rotation" : [
                -0.7071067690849304,
                0,
                0,
                0.7071067690849304
            ],
            "scale" : [
                0.022468052804470062,
                0.022468052804470062,
                0.022468052804470062
            ]
        },
        {
            "mesh" : 2,
            "name" : "Tornillo 3-8 2",
            "scale" : [
                0.022468052804470062,
                0.022468052804470062,
                0.022468052804470062
            ]
        },
        {
            "mesh" : 3,
            "name" : "Arandela De Presion Para 3-8",
            "rotation" : [
                0.7071067690849304,
                0,
                0,
                0.7071067690849304
            ],
            "scale" : [
                0.02199999988079071,
                0.02199999988079071,
                0.02199999988079071
            ]
        },
        {
            "mesh" : 4,
            "name" : "Tuerca 3-8",
            "scale" : [
                0.02199999988079071,
                0.02199999988079071,
                0.02199999988079071
            ]
        }
    ],
    "animations" : [
        {
            "channels" : [
                {
                    "sampler" : 0,
                    "target" : {
                        "node" : 2,
                        "path" : "translation"
                    }
                }
            ],
            "name" : "Pisacable M45 V2Action.002",
            "samplers" : [
                {
                    "input" : 19,
                    "interpolation" : "CUBICSPLINE",
                    "output" : 20
                }
            ]
        },
        {
            "channels" : [
                {
                    "sampler" : 0,
                    "target" : {
                        "node" : 3,
                        "path" : "translation"
                    }
                }
            ],
            "name" : "Rc2P4AAction.001",
            "samplers" : [
                {
                    "input" : 19,
                    "interpolation" : "CUBICSPLINE",
                    "output" : 21
                }
            ]
        },
        {
            "channels" : [
                {
                    "sampler" : 0,
                    "target" : {
                        "node" : 4,
                        "path" : "translation"
                    }
                }
            ],
            "name" : "Tornillo 3-8 2Action.002",
            "samplers" : [
                {
                    "input" : 19,
                    "interpolation" : "CUBICSPLINE",
                    "output" : 22
                }
            ]
        },
        {
            "channels" : [
                {
                    "sampler" : 0,
                    "target" : {
                        "node" : 5,
                        "path" : "translation"
                    }
                }
            ],
            "name" : "Arandela De Presion Para 3-8Action.001",
            "samplers" : [
                {
                    "input" : 19,
                    "interpolation" : "CUBICSPLINE",
                    "output" : 23
                }
            ]
        },
        {
            "channels" : [
                {
                    "sampler" : 0,
                    "target" : {
                        "node" : 6,
                        "path" : "translation"
                    }
                }
            ],
            "name" : "Tuerca 3-8Action.001",
            "samplers" : [
                {
                    "input" : 19,
                    "interpolation" : "CUBICSPLINE",
                    "output" : 24
                }
            ]
        }
    ],
    "materials" : [
        {
            "doubleSided" : true,
            "name" : "Material.001",
            "pbrMetallicRoughness" : {
                "baseColorTexture" : {
                    "index" : 0,
                    "texCoord" : 0
                },
                "metallicFactor" : 0,
                "roughnessFactor" : 0.5
            }
        },
        {
            "doubleSided" : true,
            "name" : "Material.002",
            "pbrMetallicRoughness" : {
                "baseColorTexture" : {
                    "index" : 1,
                    "texCoord" : 0
                },
                "metallicFactor" : 0,
                "roughnessFactor" : 0.5
            }
        },
        {
            "doubleSided" : true,
            "name" : "Material.003",
            "pbrMetallicRoughness" : {
                "baseColorFactor" : [
                    0.4109390676021576,
                    0.4109390676021576,
                    0.4109390676021576,
                    1
                ],
                "metallicFactor" : 0,
                "roughnessFactor" : 0.5
            }
        }
    ],
    "meshes" : [
        {
            "name" : "Pisacable M45 V2",
            "primitives" : [
                {
                    "attributes" : {
                        "POSITION" : 0,
                        "NORMAL" : 1,
                        "TEXCOORD_0" : 2,
                        "COLOR_0" : 3
                    },
                    "indices" : 4,
                    "material" : 0
                }
            ]
        },
        {
            "name" : "Rc2P4A",
            "primitives" : [
                {
                    "attributes" : {
                        "POSITION" : 5,
                        "NORMAL" : 6,
                        "TEXCOORD_0" : 7
                    },
                    "indices" : 8,
                    "material" : 1
                }
            ]
        },
        {
            "name" : "Tornillo 3-8 2",
            "primitives" : [
                {
                    "attributes" : {
                        "POSITION" : 9,
                        "NORMAL" : 10,
                        "TEXCOORD_0" : 11
                    },
                    "indices" : 12,
                    "material" : 2
                }
            ]
        },
        {
            "name" : "Arandela De Presion Para 3-8",
            "primitives" : [
                {
                    "attributes" : {
                        "POSITION" : 13,
                        "NORMAL" : 14
                    },
                    "indices" : 15
                }
            ]
        },
        {
            "name" : "Tuerca 3-8",
            "primitives" : [
                {
                    "attributes" : {
                        "POSITION" : 16,
                        "NORMAL" : 17
                    },
                    "indices" : 18
                }
            ]
        }
    ],
    "textures" : [
        {
            "source" : 0
        },
        {
            "source" : 1
        }
    ],
    "images" : [
        {
            "bufferView" : 5,
            "mimeType" : "image/png",
            "name" : "Material"
        },
        {
            "bufferView" : 10,
            "mimeType" : "image/png",
            "name" : "Material"
        }
    ],
    "accessors" : [
        {
            "bufferView" : 0,
            "componentType" : 5126,
            "count" : 16236,
            "max" : [
                35.05942916870117,
                89.53411865234375,
                -72.23918151855469
            ],
            "min" : [
                -45.77933883666992,
                -26.304655075073242,
                -103.95820617675781
            ],
            "type" : "VEC3"
        },
        {
            "bufferView" : 1,
            "componentType" : 5126,
            "count" : 16236,
            "type" : "VEC3"
        },
        {
            "bufferView" : 2,
            "componentType" : 5126,
            "count" : 16236,
            "type" : "VEC2"
        },
        {
            "bufferView" : 3,
            "componentType" : 5126,
            "count" : 16236,
            "type" : "VEC4"
        },
        {
            "bufferView" : 4,
            "componentType" : 5123,
            "count" : 16236,
            "type" : "SCALAR"
        },
        {
            "bufferView" : 6,
            "componentType" : 5126,
            "count" : 10067,
            "max" : [
                44.59068298339844,
                143.91555786132812,
                69.72016906738281
            ],
            "min" : [
                -55.40931701660156,
                -94.0844497680664,
                37.72017288208008
            ],
            "type" : "VEC3"
        },
        {
            "bufferView" : 7,
            "componentType" : 5126,
            "count" : 10067,
            "type" : "VEC3"
        },
        {
            "bufferView" : 8,
            "componentType" : 5126,
            "count" : 10067,
            "type" : "VEC2"
        },
        {
            "bufferView" : 9,
            "componentType" : 5123,
            "count" : 10080,
            "type" : "SCALAR"
        },
        {
            "bufferView" : 11,
            "componentType" : 5126,
            "count" : 6530,
            "max" : [
                25.01357650756836,
                92.50204467773438,
                79.88539123535156
            ],
            "min" : [
                -36.46954345703125,
                35.52984619140625,
                -14.389411926269531
            ],
            "type" : "VEC3"
        },
        {
            "bufferView" : 12,
            "componentType" : 5126,
            "count" : 6530,
            "type" : "VEC3"
        },
        {
            "bufferView" : 13,
            "componentType" : 5126,
            "count" : 6530,
            "type" : "VEC2"
        },
        {
            "bufferView" : 14,
            "componentType" : 5123,
            "count" : 6552,
            "type" : "SCALAR"
        },
        {
            "bufferView" : 15,
            "componentType" : 5126,
            "count" : 11470,
            "max" : [
                25.200828552246094,
                82.88865661621094,
                -50.035125732421875
            ],
            "min" : [
                -36.910614013671875,
                -16.26776123046875,
                -52.535125732421875
            ],
            "type" : "VEC3"
        },
        {
            "bufferView" : 16,
            "componentType" : 5126,
            "count" : 11470,
            "type" : "VEC3"
        },
        {
            "bufferView" : 17,
            "componentType" : 5123,
            "count" : 13176,
            "type" : "SCALAR"
        },
        {
            "bufferView" : 18,
            "componentType" : 5126,
            "count" : 6220,
            "max" : [
                25.52272605895996,
                49.911598205566406,
                80.97116088867188
            ],
            "min" : [
                -36.96039581298828,
                41.35179901123047,
                -14.303638458251953
            ],
            "type" : "VEC3"
        },
        {
            "bufferView" : 19,
            "componentType" : 5126,
            "count" : 6220,
            "type" : "VEC3"
        },
        {
            "bufferView" : 20,
            "componentType" : 5123,
            "count" : 7920,
            "type" : "SCALAR"
        },
        {
            "bufferView" : 21,
            "componentType" : 5126,
            "count" : 5,
            "max" : [
                2.0833333333333335
            ],
            "min" : [
                0.041666666666666664
            ],
            "type" : "SCALAR"
        },
        {
            "bufferView" : 22,
            "componentType" : 5126,
            "count" : 15,
            "type" : "VEC3"
        },
        {
            "bufferView" : 23,
            "componentType" : 5126,
            "count" : 15,
            "type" : "VEC3"
        },
        {
            "bufferView" : 24,
            "componentType" : 5126,
            "count" : 15,
            "type" : "VEC3"
        },
        {
            "bufferView" : 25,
            "componentType" : 5126,
            "count" : 15,
            "type" : "VEC3"
        },
        {
            "bufferView" : 26,
            "componentType" : 5126,
            "count" : 15,
            "type" : "VEC3"
        }
    ],
    "bufferViews" : [
        {
            "buffer" : 0,
            "byteLength" : 194832,
            "byteOffset" : 0
        },
        {
            "buffer" : 0,
            "byteLength" : 194832,
            "byteOffset" : 194832
        },
        {
            "buffer" : 0,
            "byteLength" : 129888,
            "byteOffset" : 389664
        },
        {
            "buffer" : 0,
            "byteLength" : 259776,
            "byteOffset" : 519552
        },
        {
            "buffer" : 0,
            "byteLength" : 32472,
            "byteOffset" : 779328
        },
        {
            "buffer" : 0,
            "byteLength" : 20565,
            "byteOffset" : 811800
        },
        {
            "buffer" : 0,
            "byteLength" : 120804,
            "byteOffset" : 832368
        },
        {
            "buffer" : 0,
            "byteLength" : 120804,
            "byteOffset" : 953172
        },
        {
            "buffer" : 0,
            "byteLength" : 80536,
            "byteOffset" : 1073976
        },
        {
            "buffer" : 0,
            "byteLength" : 20160,
            "byteOffset" : 1154512
        },
        {
            "buffer" : 0,
            "byteLength" : 20565,
            "byteOffset" : 1174672
        },
        {
            "buffer" : 0,
            "byteLength" : 78360,
            "byteOffset" : 1195240
        },
        {
            "buffer" : 0,
            "byteLength" : 78360,
            "byteOffset" : 1273600
        },
        {
            "buffer" : 0,
            "byteLength" : 52240,
            "byteOffset" : 1351960
        },
        {
            "buffer" : 0,
            "byteLength" : 13104,
            "byteOffset" : 1404200
        },
        {
            "buffer" : 0,
            "byteLength" : 137640,
            "byteOffset" : 1417304
        },
        {
            "buffer" : 0,
            "byteLength" : 137640,
            "byteOffset" : 1554944
        },
        {
            "buffer" : 0,
            "byteLength" : 26352,
            "byteOffset" : 1692584
        },
        {
            "buffer" : 0,
            "byteLength" : 74640,
            "byteOffset" : 1718936
        },
        {
            "buffer" : 0,
            "byteLength" : 74640,
            "byteOffset" : 1793576
        },
        {
            "buffer" : 0,
            "byteLength" : 15840,
            "byteOffset" : 1868216
        },
        {
            "buffer" : 0,
            "byteLength" : 20,
            "byteOffset" : 1884056
        },
        {
            "buffer" : 0,
            "byteLength" : 180,
            "byteOffset" : 1884076
        },
        {
            "buffer" : 0,
            "byteLength" : 180,
            "byteOffset" : 1884256
        },
        {
            "buffer" : 0,
            "byteLength" : 180,
            "byteOffset" : 1884436
        },
        {
            "buffer" : 0,
            "byteLength" : 180,
            "byteOffset" : 1884616
        },
        {
            "buffer" : 0,
            "byteLength" : 180,
            "byteOffset" : 1884796
        }
    ],
    "buffers" : [
        {
            "byteLength" : 1884976,
            "uri" : "data:application/octet-stream;base64,"
        }
    ]
}
