{
    "asset" : {
        "generator" : "Khronos glTF Blender I/O v0.9.36",
        "version" : "2.0"
    },
    "scene" : 0,
    "scenes" : [
        {
            "name" : "Scene",
            "nodes" : [
                0,
                1,
                2,
                3,
                4,
                5,
                6
            ]
        }
    ],
    "nodes" : [
        {
            "name" : "Light",
            "rotation" : [
                0.16907575726509094,
                0.7558803558349609,
                -0.27217137813568115,
                0.570947527885437
            ],
            "scale" : [
                0.022468052804470062,
                0.022468052804470062,
                0.022468052804470062
            ],
            "translation" : [
                6.726120948791504,
                5.775387287139893,
                16.77538299560547
            ]
        },
        {
            "name" : "Camera",
            "rotation" : [
                0.483536034822464,
                0.33687159419059753,
                -0.20870360732078552,
                0.7804827094078064
            ],
            "scale" : [
                0.022468052804470062,
                0.02246805839240551,
                0.022468052804470062
            ],
            "translation" : [
                6.799875736236572,
                5.7541422843933105,
                16.953582763671875
            ]
        },
        {
            "mesh" : 0,
            "name" : "Pisacable M45 V2",
            "rotation" : [
                0.7071067690849304,
                0,
                0,
                0.7071067690849304
            ],
            "scale" : [
                0.022468052804470062,
                0.022468052804470062,
                0.022468052804470062
            ],
            "translation" : [
                -0.0602138377726078,
                0.7265923619270325,
                0.8045218586921692
            ]
        },
        {
            "mesh" : 1,
            "name" : "Rc2P4A",
            "rotation" : [
                -0.7071067690849304,
                0,
                0,
                0.7071067690849304
            ],
            "scale" : [
                0.022468052804470062,
                0.022468052804470062,
                0.022468052804470062
            ],
            "translation" : [
                -0.06076839193701744,
                0.670097827911377,
                -0.07975850999355316
            ]
        },
        {
            "mesh" : 2,
            "name" : "Tornillo 3-8 2",
            "scale" : [
                0.022468052804470062,
                0.022468052804470062,
                0.022468052804470062
            ],
            "translation" : [
                0.44574564695358276,
                0.9991446733474731,
                0.8172527551651001
            ]
        },
        {
            "mesh" : 3,
            "name" : "Arandela De Presion Para 3-8",
            "rotation" : [
                0.7071067690849304,
                0,
                0,
                0.7071067690849304
            ],
            "scale" : [
                0.02199999988079071,
                0.02199999988079071,
                0.02199999988079071
            ],
            "translation" : [
                -0.5611358880996704,
                0.32544970512390137,
                0.8176113367080688
            ]
        },
        {
            "mesh" : 4,
            "name" : "Tuerca 3-8",
            "scale" : [
                0.02199999988079071,
                0.02199999988079071,
                0.02199999988079071
            ],
            "translation" : [
                -0.5654377341270447,
                0.12538424134254456,
                0.8075718879699707
            ]
        }
    ],
    "animations" : [
        {
            "channels" : [
                {
                    "sampler" : 0,
                    "target" : {
                        "node" : 2,
                        "path" : "translation"
                    }
                }
            ],
            "name" : "Pisacable M45 V2Action.001",
            "samplers" : [
                {
                    "input" : 19,
                    "interpolation" : "CUBICSPLINE",
                    "output" : 20
                }
            ]
        },
        {
            "channels" : [
                {
                    "sampler" : 0,
                    "target" : {
                        "node" : 3,
                        "path" : "translation"
                    }
                }
            ],
            "name" : "Rc2P4AAction",
            "samplers" : [
                {
                    "input" : 19,
                    "interpolation" : "CUBICSPLINE",
                    "output" : 21
                }
            ]
        },
        {
            "channels" : [
                {
                    "sampler" : 0,
                    "target" : {
                        "node" : 4,
                        "path" : "translation"
                    }
                }
            ],
            "name" : "Tornillo 3-8 2Action.001",
            "samplers" : [
                {
                    "input" : 19,
                    "interpolation" : "CUBICSPLINE",
                    "output" : 22
                }
            ]
        },
        {
            "channels" : [
                {
                    "sampler" : 0,
                    "target" : {
                        "node" : 5,
                        "path" : "translation"
                    }
                }
            ],
            "name" : "Arandela De Presion Para 3-8Action",
            "samplers" : [
                {
                    "input" : 19,
                    "interpolation" : "CUBICSPLINE",
                    "output" : 23
                }
            ]
        },
        {
            "channels" : [
                {
                    "sampler" : 0,
                    "target" : {
                        "node" : 6,
                        "path" : "translation"
                    }
                }
            ],
            "name" : "Tuerca 3-8Action",
            "samplers" : [
                {
                    "input" : 19,
                    "interpolation" : "CUBICSPLINE",
                    "output" : 24
                }
            ]
        }
    ],
    "materials" : [
        {
            "doubleSided" : true,
            "name" : "Material.001",
            "pbrMetallicRoughness" : {
                "baseColorTexture" : {
                    "index" : 0,
                    "texCoord" : 0
                },
                "metallicFactor" : 0,
                "roughnessFactor" : 0.5
            }
        },
        {
            "doubleSided" : true,
            "name" : "Material.002",
            "pbrMetallicRoughness" : {
                "baseColorTexture" : {
                    "index" : 1,
                    "texCoord" : 0
                },
                "metallicFactor" : 0,
                "roughnessFactor" : 0.5
            }
        },
        {
            "doubleSided" : true,
            "name" : "Material.003",
            "pbrMetallicRoughness" : {
                "baseColorFactor" : [
                    0.4109390676021576,
                    0.4109390676021576,
                    0.4109390676021576,
                    1
                ],
                "metallicFactor" : 0,
                "roughnessFactor" : 0.5
            }
        }
    ],
    "meshes" : [
        {
            "name" : "Pisacable M45 V2",
            "primitives" : [
                {
                    "attributes" : {
                        "POSITION" : 0,
                        "NORMAL" : 1,
                        "TEXCOORD_0" : 2,
                        "COLOR_0" : 3
                    },
                    "indices" : 4,
                    "material" : 0
                }
            ]
        },
        {
            "name" : "Rc2P4A",
            "primitives" : [
                {
                    "attributes" : {
                        "POSITION" : 5,
                        "NORMAL" : 6,
                        "TEXCOORD_0" : 7
                    },
                    "indices" : 8,
                    "material" : 1
                }
            ]
        },
        {
            "name" : "Tornillo 3-8 2",
            "primitives" : [
                {
                    "attributes" : {
                        "POSITION" : 9,
                        "NORMAL" : 10,
                        "TEXCOORD_0" : 11
                    },
                    "indices" : 12,
                    "material" : 2
                }
            ]
        },
        {
            "name" : "Arandela De Presion Para 3-8",
            "primitives" : [
                {
                    "attributes" : {
                        "POSITION" : 13,
                        "NORMAL" : 14
                    },
                    "indices" : 15
                }
            ]
        },
        {
            "name" : "Tuerca 3-8",
            "primitives" : [
                {
                    "attributes" : {
                        "POSITION" : 16,
                        "NORMAL" : 17
                    },
                    "indices" : 18
                }
            ]
        }
    ],
    "textures" : [
        {
            "source" : 0
        },
        {
            "source" : 1
        }
    ],
    "images" : [
        {
            "bufferView" : 5,
            "mimeType" : "image/png",
            "name" : "Material"
        },
        {
            "bufferView" : 10,
            "mimeType" : "image/png",
            "name" : "Material"
        }
    ],
    "accessors" : [
        {
            "bufferView" : 0,
            "componentType" : 5126,
            "count" : 16234,
            "max" : [
                40.41938400268555,
                17.91938591003418,
                0
            ],
            "min" : [
                -40.41938400268555,
                -97.91938781738281,
                -31.71902084350586
            ],
            "type" : "VEC3"
        },
        {
            "bufferView" : 1,
            "componentType" : 5126,
            "count" : 16234,
            "type" : "VEC3"
        },
        {
            "bufferView" : 2,
            "componentType" : 5126,
            "count" : 16234,
            "type" : "VEC2"
        },
        {
            "bufferView" : 3,
            "componentType" : 5126,
            "count" : 16234,
            "type" : "VEC4"
        },
        {
            "bufferView" : 4,
            "componentType" : 5123,
            "count" : 16236,
            "type" : "SCALAR"
        },
        {
            "bufferView" : 6,
            "componentType" : 5126,
            "count" : 10066,
            "max" : [
                50,
                175.5,
                0
            ],
            "min" : [
                -50,
                -62.5,
                -32
            ],
            "type" : "VEC3"
        },
        {
            "bufferView" : 7,
            "componentType" : 5126,
            "count" : 10066,
            "type" : "VEC3"
        },
        {
            "bufferView" : 8,
            "componentType" : 5126,
            "count" : 10066,
            "type" : "VEC2"
        },
        {
            "bufferView" : 9,
            "componentType" : 5123,
            "count" : 10080,
            "type" : "SCALAR"
        },
        {
            "bufferView" : 11,
            "componentType" : 5126,
            "count" : 6538,
            "max" : [
                8.241559982299805,
                6.1722002029418945,
                7.137400150299072
            ],
            "min" : [
                -53.24156188964844,
                -50.79999923706055,
                -87.13739776611328
            ],
            "type" : "VEC3"
        },
        {
            "bufferView" : 12,
            "componentType" : 5126,
            "count" : 6538,
            "type" : "VEC3"
        },
        {
            "bufferView" : 13,
            "componentType" : 5126,
            "count" : 6538,
            "type" : "VEC2"
        },
        {
            "bufferView" : 14,
            "componentType" : 5123,
            "count" : 6552,
            "type" : "SCALAR"
        },
        {
            "bufferView" : 15,
            "componentType" : 5126,
            "count" : 11532,
            "max" : [
                53.528587341308594,
                8.56035327911377,
                1.25
            ],
            "min" : [
                -8.582854270935059,
                -90.59606170654297,
                -1.25
            ],
            "type" : "VEC3"
        },
        {
            "bufferView" : 16,
            "componentType" : 5126,
            "count" : 11532,
            "type" : "VEC3"
        },
        {
            "bufferView" : 17,
            "componentType" : 5123,
            "count" : 13176,
            "type" : "SCALAR"
        },
        {
            "bufferView" : 18,
            "componentType" : 5126,
            "count" : 6276,
            "max" : [
                54.24156188964844,
                8.559800148010254,
                7.137400150299072
            ],
            "min" : [
                -8.241559982299805,
                0,
                -88.13739776611328
            ],
            "type" : "VEC3"
        },
        {
            "bufferView" : 19,
            "componentType" : 5126,
            "count" : 6276,
            "type" : "VEC3"
        },
        {
            "bufferView" : 20,
            "componentType" : 5123,
            "count" : 7920,
            "type" : "SCALAR"
        },
        {
            "bufferView" : 21,
            "componentType" : 5126,
            "count" : 4,
            "max" : [
                2.9166666666666665
            ],
            "min" : [
                0.625
            ],
            "type" : "SCALAR"
        },
        {
            "bufferView" : 22,
            "componentType" : 5126,
            "count" : 12,
            "type" : "VEC3"
        },
        {
            "bufferView" : 23,
            "componentType" : 5126,
            "count" : 12,
            "type" : "VEC3"
        },
        {
            "bufferView" : 24,
            "componentType" : 5126,
            "count" : 12,
            "type" : "VEC3"
        },
        {
            "bufferView" : 25,
            "componentType" : 5126,
            "count" : 12,
            "type" : "VEC3"
        },
        {
            "bufferView" : 26,
            "componentType" : 5126,
            "count" : 12,
            "type" : "VEC3"
        }
    ],
    "bufferViews" : [
        {
            "buffer" : 0,
            "byteLength" : 194808,
            "byteOffset" : 0
        },
        {
            "buffer" : 0,
            "byteLength" : 194808,
            "byteOffset" : 194808
        },
        {
            "buffer" : 0,
            "byteLength" : 129872,
            "byteOffset" : 389616
        },
        {
            "buffer" : 0,
            "byteLength" : 259744,
            "byteOffset" : 519488
        },
        {
            "buffer" : 0,
            "byteLength" : 32472,
            "byteOffset" : 779232
        },
        {
            "buffer" : 0,
            "byteLength" : 20565,
            "byteOffset" : 811704
        },
        {
            "buffer" : 0,
            "byteLength" : 120792,
            "byteOffset" : 832272
        },
        {
            "buffer" : 0,
            "byteLength" : 120792,
            "byteOffset" : 953064
        },
        {
            "buffer" : 0,
            "byteLength" : 80528,
            "byteOffset" : 1073856
        },
        {
            "buffer" : 0,
            "byteLength" : 20160,
            "byteOffset" : 1154384
        },
        {
            "buffer" : 0,
            "byteLength" : 20565,
            "byteOffset" : 1174544
        },
        {
            "buffer" : 0,
            "byteLength" : 78456,
            "byteOffset" : 1195112
        },
        {
            "buffer" : 0,
            "byteLength" : 78456,
            "byteOffset" : 1273568
        },
        {
            "buffer" : 0,
            "byteLength" : 52304,
            "byteOffset" : 1352024
        },
        {
            "buffer" : 0,
            "byteLength" : 13104,
            "byteOffset" : 1404328
        },
        {
            "buffer" : 0,
            "byteLength" : 138384,
            "byteOffset" : 1417432
        },
        {
            "buffer" : 0,
            "byteLength" : 138384,
            "byteOffset" : 1555816
        },
        {
            "buffer" : 0,
            "byteLength" : 26352,
            "byteOffset" : 1694200
        },
        {
            "buffer" : 0,
            "byteLength" : 75312,
            "byteOffset" : 1720552
        },
        {
            "buffer" : 0,
            "byteLength" : 75312,
            "byteOffset" : 1795864
        },
        {
            "buffer" : 0,
            "byteLength" : 15840,
            "byteOffset" : 1871176
        },
        {
            "buffer" : 0,
            "byteLength" : 16,
            "byteOffset" : 1887016
        },
        {
            "buffer" : 0,
            "byteLength" : 144,
            "byteOffset" : 1887032
        },
        {
            "buffer" : 0,
            "byteLength" : 144,
            "byteOffset" : 1887176
        },
        {
            "buffer" : 0,
            "byteLength" : 144,
            "byteOffset" : 1887320
        },
        {
            "buffer" : 0,
            "byteLength" : 144,
            "byteOffset" : 1887464
        },
        {
            "buffer" : 0,
            "byteLength" : 144,
            "byteOffset" : 1887608
        }
    ],
    "buffers" : [
        {
            "byteLength" : 1887752,
            "uri" : "data:application/octet-stream;base64,"
        }
    ]
}
