{
    "asset" : {
        "generator" : "Khronos glTF Blender I/O v0.9.36",
        "version" : "2.0"
    },
    "scene" : 0,
    "scenes" : [
        {
            "name" : "Scene",
            "nodes" : [
                0,
                1,
                2,
                3,
                4
            ]
        }
    ],
    "nodes" : [
        {
            "name" : "Light",
            "rotation" : [
                0.16907575726509094,
                0.7558803558349609,
                -0.27217137813568115,
                0.570947527885437
            ],
            "scale" : [
                0.022468052804470062,
                0.022468052804470062,
                0.022468052804470062
            ],
            "translation" : [
                6.726120948791504,
                5.775387287139893,
                16.77538299560547
            ]
        },
        {
            "name" : "Camera",
            "rotation" : [
                0.483536034822464,
                0.33687159419059753,
                -0.20870360732078552,
                0.7804827094078064
            ],
            "scale" : [
                0.022468052804470062,
                0.02246805839240551,
                0.022468052804470062
            ],
            "translation" : [
                6.799875736236572,
                5.7541422843933105,
                16.953582763671875
            ]
        },
        {
            "mesh" : 0,
            "name" : "Pisacable M45 V2",
            "rotation" : [
                0.7071067690849304,
                0,
                0,
                0.7071067690849304
            ],
            "scale" : [
                0.022468052804470062,
                0.022468052804470062,
                0.022468052804470062
            ],
            "translation" : [
                0,
                0,
                0.8999999761581421
            ]
        },
        {
            "mesh" : 1,
            "name" : "Rc2P4A",
            "rotation" : [
                -0.7071067690849304,
                0,
                0,
                0.7071067690849304
            ],
            "scale" : [
                0.022468052804470062,
                0.022468052804470062,
                0.022468052804470062
            ]
        },
        {
            "mesh" : 2,
            "name" : "Tornillo 3-8 2",
            "scale" : [
                0.022468052804470062,
                0.022468052804470062,
                0.022468052804470062
            ],
            "translation" : [
                0.5,
                0.30000001192092896,
                0.8999999761581421
            ]
        }
    ],
    "materials" : [
        {
            "doubleSided" : true,
            "name" : "Material.001",
            "pbrMetallicRoughness" : {
                "baseColorTexture" : {
                    "index" : 0,
                    "texCoord" : 0
                },
                "metallicFactor" : 0,
                "roughnessFactor" : 0.5
            }
        },
        {
            "doubleSided" : true,
            "name" : "Material.002",
            "pbrMetallicRoughness" : {
                "baseColorTexture" : {
                    "index" : 1,
                    "texCoord" : 0
                },
                "metallicFactor" : 0,
                "roughnessFactor" : 0.5
            }
        },
        {
            "doubleSided" : true,
            "name" : "Material.003",
            "pbrMetallicRoughness" : {
                "baseColorFactor" : [
                    0.4109390676021576,
                    0.4109390676021576,
                    0.4109390676021576,
                    1
                ],
                "metallicFactor" : 0,
                "roughnessFactor" : 0.5
            }
        }
    ],
    "meshes" : [
        {
            "name" : "Pisacable M45 V2",
            "primitives" : [
                {
                    "attributes" : {
                        "POSITION" : 0,
                        "NORMAL" : 1,
                        "TEXCOORD_0" : 2
                    },
                    "indices" : 3,
                    "material" : 0
                }
            ]
        },
        {
            "name" : "Rc2P4A",
            "primitives" : [
                {
                    "attributes" : {
                        "POSITION" : 4,
                        "NORMAL" : 5,
                        "TEXCOORD_0" : 6
                    },
                    "indices" : 7,
                    "material" : 1
                }
            ]
        },
        {
            "name" : "Tornillo 3-8 2",
            "primitives" : [
                {
                    "attributes" : {
                        "POSITION" : 8,
                        "NORMAL" : 9,
                        "TEXCOORD_0" : 10
                    },
                    "indices" : 11,
                    "material" : 2
                }
            ]
        }
    ],
    "textures" : [
        {
            "source" : 0
        },
        {
            "source" : 1
        }
    ],
    "images" : [
        {
            "bufferView" : 4,
            "mimeType" : "image/png",
            "name" : "Material"
        },
        {
            "bufferView" : 9,
            "mimeType" : "image/png",
            "name" : "Material"
        }
    ],
    "accessors" : [
        {
            "bufferView" : 0,
            "componentType" : 5126,
            "count" : 16234,
            "max" : [
                40.41938400268555,
                17.91938591003418,
                0
            ],
            "min" : [
                -40.41938400268555,
                -97.91938781738281,
                -31.71902084350586
            ],
            "type" : "VEC3"
        },
        {
            "bufferView" : 1,
            "componentType" : 5126,
            "count" : 16234,
            "type" : "VEC3"
        },
        {
            "bufferView" : 2,
            "componentType" : 5126,
            "count" : 16234,
            "type" : "VEC2"
        },
        {
            "bufferView" : 3,
            "componentType" : 5123,
            "count" : 16236,
            "type" : "SCALAR"
        },
        {
            "bufferView" : 5,
            "componentType" : 5126,
            "count" : 10066,
            "max" : [
                50,
                175.5,
                0
            ],
            "min" : [
                -50,
                -62.5,
                -32
            ],
            "type" : "VEC3"
        },
        {
            "bufferView" : 6,
            "componentType" : 5126,
            "count" : 10066,
            "type" : "VEC3"
        },
        {
            "bufferView" : 7,
            "componentType" : 5126,
            "count" : 10066,
            "type" : "VEC2"
        },
        {
            "bufferView" : 8,
            "componentType" : 5123,
            "count" : 10080,
            "type" : "SCALAR"
        },
        {
            "bufferView" : 10,
            "componentType" : 5126,
            "count" : 6538,
            "max" : [
                8.241559982299805,
                6.1722002029418945,
                7.137400150299072
            ],
            "min" : [
                -53.24156188964844,
                -50.79999923706055,
                -87.13739776611328
            ],
            "type" : "VEC3"
        },
        {
            "bufferView" : 11,
            "componentType" : 5126,
            "count" : 6538,
            "type" : "VEC3"
        },
        {
            "bufferView" : 12,
            "componentType" : 5126,
            "count" : 6538,
            "type" : "VEC2"
        },
        {
            "bufferView" : 13,
            "componentType" : 5123,
            "count" : 6552,
            "type" : "SCALAR"
        }
    ],
    "bufferViews" : [
        {
            "buffer" : 0,
            "byteLength" : 194808,
            "byteOffset" : 0
        },
        {
            "buffer" : 0,
            "byteLength" : 194808,
            "byteOffset" : 194808
        },
        {
            "buffer" : 0,
            "byteLength" : 129872,
            "byteOffset" : 389616
        },
        {
            "buffer" : 0,
            "byteLength" : 32472,
            "byteOffset" : 519488
        },
        {
            "buffer" : 0,
            "byteLength" : 20565,
            "byteOffset" : 551960
        },
        {
            "buffer" : 0,
            "byteLength" : 120792,
            "byteOffset" : 572528
        },
        {
            "buffer" : 0,
            "byteLength" : 120792,
            "byteOffset" : 693320
        },
        {
            "buffer" : 0,
            "byteLength" : 80528,
            "byteOffset" : 814112
        },
        {
            "buffer" : 0,
            "byteLength" : 20160,
            "byteOffset" : 894640
        },
        {
            "buffer" : 0,
            "byteLength" : 20565,
            "byteOffset" : 914800
        },
        {
            "buffer" : 0,
            "byteLength" : 78456,
            "byteOffset" : 935368
        },
        {
            "buffer" : 0,
            "byteLength" : 78456,
            "byteOffset" : 1013824
        },
        {
            "buffer" : 0,
            "byteLength" : 52304,
            "byteOffset" : 1092280
        },
        {
            "buffer" : 0,
            "byteLength" : 13104,
            "byteOffset" : 1144584
        }
    ],
    "buffers" : [
        {
            "byteLength" : 1157688,
            "uri" : "data:application/octet-stream;base64,"
        }
    ]
}
