{
    "asset" : {
        "generator" : "Khronos glTF Blender I/O v0.9.36",
        "version" : "2.0"
    },
    "scene" : 0,
    "scenes" : [
        {
            "name" : "Scene",
            "nodes" : [
                0,
                1,
                2
            ]
        }
    ],
    "nodes" : [
        {
            "name" : "Light",
            "rotation" : [
                0.16907575726509094,
                0.7558803558349609,
                -0.27217137813568115,
                0.570947527885437
            ],
            "translation" : [
                4.076245307922363,
                5.903861999511719,
                -1.0054539442062378
            ]
        },
        {
            "name" : "Camera",
            "rotation" : [
                0.483536034822464,
                0.33687159419059753,
                -0.20870360732078552,
                0.7804827094078064
            ],
            "translation" : [
                7.358891487121582,
                4.958309173583984,
                6.925790786743164
            ]
        },
        {
            "mesh" : 0,
            "name" : "5418-Sr",
            "rotation" : [
                0.7071067690849304,
                0,
                0,
                0.7071067690849304
            ],
            "scale" : [
                0.009108074009418488,
                0.009108074009418488,
                0.009108074009418488
            ]
        }
    ],
    "meshes" : [
        {
            "name" : "5418-Sr",
            "primitives" : [
                {
                    "attributes" : {
                        "POSITION" : 0,
                        "NORMAL" : 1
                    },
                    "indices" : 2
                }
            ]
        }
    ],
    "accessors" : [
        {
            "bufferView" : 0,
            "componentType" : 5126,
            "count" : 7694,
            "max" : [
                76.24996948242188,
                71.49989318847656,
                6.103515625e-05
            ],
            "min" : [
                -76.25013732910156,
                -71.50005340576172,
                -31.901077270507812
            ],
            "type" : "VEC3"
        },
        {
            "bufferView" : 1,
            "componentType" : 5126,
            "count" : 7694,
            "type" : "VEC3"
        },
        {
            "bufferView" : 2,
            "componentType" : 5123,
            "count" : 16890,
            "type" : "SCALAR"
        }
    ],
    "bufferViews" : [
        {
            "buffer" : 0,
            "byteLength" : 92328,
            "byteOffset" : 0
        },
        {
            "buffer" : 0,
            "byteLength" : 92328,
            "byteOffset" : 92328
        },
        {
            "buffer" : 0,
            "byteLength" : 33780,
            "byteOffset" : 184656
        }
    ],
    "buffers" : [
        {
            "byteLength" : 218436,
            "uri" : "data:application/octet-stream;base64,"
        }
    ]
}
