# Blender v2.80 (sub 75) OBJ File: ''
# www.blender.org
mtllib export.mtl
o prt00039
v -0.301088 0.301089 -1.303773
v 0.301088 -0.301088 -1.303773
v -0.301088 -0.301088 -1.303773
v 0.301088 -0.301089 1.303773
v -0.301088 -0.301088 -1.303773
v 0.301088 -0.301088 -1.303773
v -0.301088 -0.301089 1.303773
v -0.301088 0.301089 -1.303773
v -0.301088 -0.301088 -1.303773
v -0.301088 -0.301089 1.303773
v 0.301088 0.301089 -1.303773
v 0.301088 0.301088 1.303773
v 0.301088 -0.301088 -1.303773
v 0.301088 0.301089 -1.303773
v 0.301088 -0.301089 1.303773
v -0.301088 0.301088 1.303773
v 0.301088 0.301089 -1.303773
v -0.301088 0.301089 -1.303773
v 0.301088 0.301088 1.303773
v -0.301088 0.301088 1.303773
v 0.301088 0.301088 1.303773
v -0.301088 0.301088 1.303773
v -0.301088 -0.301089 1.303773
v 0.301088 -0.301089 1.303773
vt 0.000000 0.000000
vt 0.000000 1.000000
vt 0.000000 0.000000
vt 1.000000 1.000000
vt 0.000000 0.000000
vt 0.000000 1.000000
vt 1.000000 0.000000
vt 0.000000 0.000000
vt 0.000000 0.000000
vt 1.000000 0.000000
vt 0.000000 1.000000
vt 1.000000 1.000000
vt 0.000000 1.000000
vt 0.000000 1.000000
vt 1.000000 1.000000
vt 1.000000 0.000000
vt 0.000000 1.000000
vt 0.000000 0.000000
vt 1.000000 1.000000
vt 1.000000 0.000000
vt 1.000000 1.000000
vt 1.000000 0.000000
vt 1.000000 0.000000
vt 1.000000 1.000000
vn 0.0000 0.0000 -1.0000
vn 0.0000 -1.0000 -0.0000
vn -1.0000 0.0000 0.0000
vn 1.0000 0.0000 0.0000
vn 0.0000 1.0000 0.0000
vn 0.0000 0.0000 1.0000
usemtl MTL0
s 1
f 1/1/1 2/2/1 3/3/1
f 4/4/2 5/5/2 6/6/2
f 7/7/3 8/8/3 9/9/3
f 4/4/2 10/10/2 5/5/2
f 1/1/1 11/11/1 2/2/1
f 12/12/4 13/13/4 14/14/4
f 15/15/4 13/13/4 12/12/4
f 16/16/5 17/17/5 18/18/5
f 19/19/5 17/17/5 16/16/5
f 20/20/3 8/8/3 7/7/3
f 21/21/6 22/22/6 23/23/6
f 24/24/6 21/21/6 23/23/6
