{
    "asset" : {
        "generator" : "Khronos glTF Blender I/O v0.9.36",
        "version" : "2.0"
    },
    "scene" : 0,
    "scenes" : [
        {
            "name" : "Scene",
            "nodes" : [
                0
            ]
        }
    ],
    "nodes" : [
        {
            "mesh" : 0,
            "name" : "Ensamble Grapa Pistola",
            "scale" : [
                0.00405781390145421,
                0.00405781390145421,
                0.00405781390145421
            ],
            "translation" : [
                -0.2674109637737274,
                0.252901554107666,
                -0.22907747328281403
            ]
        }
    ],
    "meshes" : [
        {
            "name" : "Ensamble Grapa Pistola",
            "primitives" : [
                {
                    "attributes" : {
                        "POSITION" : 0,
                        "NORMAL" : 1
                    },
                    "indices" : 2
                }
            ]
        }
    ],
    "accessors" : [
        {
            "bufferView" : 0,
            "componentType" : 5126,
            "count" : 53109,
            "max" : [
                159.90040588378906,
                36,
                145.2247772216797
            ],
            "min" : [
                -21.678997039794922,
                -31.40534210205078,
                -34.63684844970703
            ],
            "type" : "VEC3"
        },
        {
            "bufferView" : 1,
            "componentType" : 5126,
            "count" : 53109,
            "type" : "VEC3"
        },
        {
            "bufferView" : 2,
            "componentType" : 5123,
            "count" : 53640,
            "type" : "SCALAR"
        }
    ],
    "bufferViews" : [
        {
            "buffer" : 0,
            "byteLength" : 637308,
            "byteOffset" : 0
        },
        {
            "buffer" : 0,
            "byteLength" : 637308,
            "byteOffset" : 637308
        },
        {
            "buffer" : 0,
            "byteLength" : 107280,
            "byteOffset" : 1274616
        }
    ],
    "buffers" : [
        {
            "byteLength" : 1381896,
            "uri" : "data:application/octet-stream;base64,"
        }
    ]
}
