{
    "asset" : {
        "generator" : "Khronos glTF Blender I/O v0.9.36",
        "version" : "2.0"
    },
    "scene" : 0,
    "scenes" : [
        {
            "name" : "Scene",
            "nodes" : [
                0,
                1,
                2
            ]
        }
    ],
    "nodes" : [
        {
            "mesh" : 0,
            "name" : "Ensamble Grapa Pistola 266-8 As",
            "scale" : [
                0.003000000026077032,
                0.003000000026077032,
                0.003000000026077032
            ],
            "translation" : [
                -0.20628371834754944,
                0.18156054615974426,
                0
            ]
        },
        {
            "mesh" : 1,
            "name" : "Ensamble Grapa Pistola 266-8 As.001",
            "scale" : [
                0.003000000026077032,
                0.003000000026077032,
                0.003000000026077032
            ],
            "translation" : [
                -0.20628371834754944,
                0.18156054615974426,
                0
            ]
        },
        {
            "mesh" : 2,
            "name" : "Ensamble Grapa Pistola 266-8 As.002",
            "scale" : [
                0.003000000026077032,
                0.003000000026077032,
                0.003000000026077032
            ],
            "translation" : [
                -0.20628371834754944,
                0.18156054615974426,
                0
            ]
        }
    ],
    "materials" : [
        {
            "doubleSided" : true,
            "name" : "Material.007",
            "pbrMetallicRoughness" : {
                "baseColorTexture" : {
                    "index" : 0,
                    "texCoord" : 0
                },
                "metallicFactor" : 0,
                "roughnessFactor" : 0.5
            }
        },
        {
            "doubleSided" : true,
            "name" : "Material.008",
            "pbrMetallicRoughness" : {
                "baseColorTexture" : {
                    "index" : 1,
                    "texCoord" : 0
                },
                "metallicFactor" : 0,
                "roughnessFactor" : 0.5
            }
        },
        {
            "doubleSided" : true,
            "name" : "Material.009",
            "pbrMetallicRoughness" : {
                "baseColorTexture" : {
                    "index" : 2,
                    "texCoord" : 0
                },
                "metallicFactor" : 0,
                "roughnessFactor" : 0.5
            }
        }
    ],
    "meshes" : [
        {
            "name" : "Ensamble Grapa Pistola 266-8 As",
            "primitives" : [
                {
                    "attributes" : {
                        "POSITION" : 0,
                        "NORMAL" : 1,
                        "TEXCOORD_0" : 2
                    },
                    "indices" : 3,
                    "material" : 0
                }
            ]
        },
        {
            "name" : "Ensamble Grapa Pistola 266-8 As.001",
            "primitives" : [
                {
                    "attributes" : {
                        "POSITION" : 4,
                        "NORMAL" : 5,
                        "TEXCOORD_0" : 6
                    },
                    "indices" : 7,
                    "material" : 1
                }
            ]
        },
        {
            "name" : "Ensamble Grapa Pistola 266-8 As.002",
            "primitives" : [
                {
                    "attributes" : {
                        "POSITION" : 8,
                        "NORMAL" : 9,
                        "TEXCOORD_0" : 10
                    },
                    "indices" : 11,
                    "material" : 2
                }
            ]
        }
    ],
    "textures" : [
        {
            "source" : 0
        },
        {
            "source" : 1
        },
        {
            "source" : 1
        }
    ],
    "images" : [
        {
            "bufferView" : 4,
            "mimeType" : "image/png",
            "name" : "Material"
        },
        {
            "bufferView" : 9,
            "mimeType" : "image/png",
            "name" : "Material"
        }
    ],
    "accessors" : [
        {
            "bufferView" : 0,
            "componentType" : 5126,
            "count" : 55170,
            "max" : [
                130.38909912109375,
                36,
                127.47877502441406
            ],
            "min" : [
                -12,
                -31.049531936645508,
                -21.5
            ],
            "type" : "VEC3"
        },
        {
            "bufferView" : 1,
            "componentType" : 5126,
            "count" : 55170,
            "type" : "VEC3"
        },
        {
            "bufferView" : 2,
            "componentType" : 5126,
            "count" : 55170,
            "type" : "VEC2"
        },
        {
            "bufferView" : 3,
            "componentType" : 5123,
            "count" : 62082,
            "type" : "SCALAR"
        },
        {
            "bufferView" : 5,
            "componentType" : 5126,
            "count" : 14512,
            "max" : [
                159.96218872070312,
                26,
                138.48765563964844
            ],
            "min" : [
                -21.678997039794922,
                -26,
                -34.63684844970703
            ],
            "type" : "VEC3"
        },
        {
            "bufferView" : 6,
            "componentType" : 5126,
            "count" : 14512,
            "type" : "VEC3"
        },
        {
            "bufferView" : 7,
            "componentType" : 5126,
            "count" : 14512,
            "type" : "VEC2"
        },
        {
            "bufferView" : 8,
            "componentType" : 5123,
            "count" : 17076,
            "type" : "SCALAR"
        },
        {
            "bufferView" : 10,
            "componentType" : 5126,
            "count" : 5352,
            "max" : [
                74.27778625488281,
                9,
                145.2247772216797
            ],
            "min" : [
                36.00676345825195,
                -9,
                45.52839660644531
            ],
            "type" : "VEC3"
        },
        {
            "bufferView" : 11,
            "componentType" : 5126,
            "count" : 5352,
            "type" : "VEC3"
        },
        {
            "bufferView" : 12,
            "componentType" : 5126,
            "count" : 5352,
            "type" : "VEC2"
        },
        {
            "bufferView" : 13,
            "componentType" : 5123,
            "count" : 6270,
            "type" : "SCALAR"
        }
    ],
    "bufferViews" : [
        {
            "buffer" : 0,
            "byteLength" : 662040,
            "byteOffset" : 0
        },
        {
            "buffer" : 0,
            "byteLength" : 662040,
            "byteOffset" : 662040
        },
        {
            "buffer" : 0,
            "byteLength" : 441360,
            "byteOffset" : 1324080
        },
        {
            "buffer" : 0,
            "byteLength" : 124164,
            "byteOffset" : 1765440
        },
        {
            "buffer" : 0,
            "byteLength" : 20565,
            "byteOffset" : 1889604
        },
        {
            "buffer" : 0,
            "byteLength" : 174144,
            "byteOffset" : 1910172
        },
        {
            "buffer" : 0,
            "byteLength" : 174144,
            "byteOffset" : 2084316
        },
        {
            "buffer" : 0,
            "byteLength" : 116096,
            "byteOffset" : 2258460
        },
        {
            "buffer" : 0,
            "byteLength" : 34152,
            "byteOffset" : 2374556
        },
        {
            "buffer" : 0,
            "byteLength" : 20565,
            "byteOffset" : 2408708
        },
        {
            "buffer" : 0,
            "byteLength" : 64224,
            "byteOffset" : 2429276
        },
        {
            "buffer" : 0,
            "byteLength" : 64224,
            "byteOffset" : 2493500
        },
        {
            "buffer" : 0,
            "byteLength" : 42816,
            "byteOffset" : 2557724
        },
        {
            "buffer" : 0,
            "byteLength" : 12540,
            "byteOffset" : 2600540
        }
    ],
    "buffers" : [
        {
            "byteLength" : 2613080,
            "uri" : "data:application/octet-stream;base64,"
        }
    ]
}
