# Blender v2.80 (sub 75) OBJ File: ''
# www.blender.org
mtllib gp.mtl
o Grapa_Retencion_Recta_2-0
v -5.260476 0.474861 1.548975
v -5.358232 0.406819 0.943987
v -4.473041 -0.919857 0.787802
v -4.009550 -0.920311 0.808317
v -4.708087 0.509159 1.656929
v -4.475569 -0.596587 1.056638
v -4.480377 0.500563 1.513315
v -4.306652 0.504301 1.471084
v -3.569318 -0.662379 1.156021
v -3.619016 0.458962 0.942109
v -3.286221 -0.953912 0.862660
v -2.564128 -1.000882 0.865952
v -3.320780 -0.591605 1.170149
v -3.279498 0.552538 1.326458
v -2.566859 -0.487253 1.080840
v -2.562103 0.488781 1.081115
v -1.841892 -1.027888 0.896707
v -1.122026 -1.063396 0.852043
v -1.839501 -0.503606 0.997663
v -1.838447 0.489912 1.083721
v -1.238196 -0.592537 0.960406
v -0.910633 0.509227 1.176299
v -5.592143 0.872382 2.503123
v -5.428162 0.657940 1.022753
v -4.554871 0.875573 2.467320
v -4.480394 0.905726 1.513302
v -3.967129 0.881297 2.244523
v -4.036565 0.765441 1.124596
v -3.378418 0.936060 2.176641
v -2.562096 0.766686 0.954646
v -1.838447 0.789277 0.954646
v -1.213747 0.953001 1.372660
v -5.359075 0.405688 0.507089
v -5.311612 0.507776 -0.148733
v -4.471892 -0.920684 0.672228
v -4.010124 -0.921749 0.629754
v -4.469330 -0.805353 0.408314
v -4.464945 0.496798 -0.069166
v -4.727910 0.511590 -0.295800
v -3.622102 -0.775259 0.430236
v -3.628433 0.470701 0.482619
v -4.298287 0.515180 -0.030762
v -3.286455 -0.959374 0.605643
v -2.564247 -1.004192 0.591240
v -3.354357 -0.521551 0.223504
v -3.369141 0.510141 0.321262
v -2.567939 -0.483673 0.347048
v -2.571663 0.480976 0.341622
v -1.841945 -1.030066 0.558004
v -0.254537 -1.272050 0.533943
v -1.839355 -0.498732 0.455804
v -1.848431 0.489228 0.313361
v -1.196905 -0.574608 0.531500
v -0.925718 0.490830 0.305753
v -5.435590 0.660579 0.440382
v -5.761098 0.878606 -0.864721
v -4.464914 0.908821 -0.069253
v -4.711849 0.871566 -1.168502
v -4.038365 0.765495 0.347674
v -3.948720 0.844048 -0.825463
v -3.321083 0.877082 0.112952
v -2.605373 1.008430 0.128667
v -1.902981 0.936232 0.001104
v -1.282152 0.921121 0.215504
v 0.469123 -1.469146 1.565728
v -0.842260 -0.485720 1.502791
v 0.066366 0.013680 1.202307
v -0.668250 1.153475 1.274377
v 0.020383 -1.338545 -0.024101
v -1.153362 -0.442215 0.374883
v -0.278841 0.361384 -0.018893
v -0.669268 1.155001 0.048548
vn 0.0604 -0.9851 0.1612
vn 0.0377 -0.9934 0.1082
vn -0.0962 -0.6893 0.7181
vn 0.0698 -0.5088 0.8581
vn 0.0417 -0.2011 0.9787
vn 0.0259 -0.2910 0.9564
vn -0.5645 0.0189 0.8252
vn -0.0214 -0.7194 0.6943
vn 0.1054 0.9936 -0.0408
vn -0.1057 0.9907 -0.0854
vn 0.1708 -0.9414 -0.2907
vn -0.0005 -0.9914 -0.1312
vn 0.0118 -0.8748 -0.4843
vn 0.0581 -0.5431 -0.8376
vn 0.0123 -0.0755 -0.9971
vn 0.0406 -0.3125 -0.9491
vn -0.5896 0.0477 -0.8063
vn -0.0128 -0.7019 -0.7122
vn 0.1368 0.9906 0.0085
vn -0.0807 0.9923 0.0938
vn -0.5104 -0.5223 0.6831
vn -0.6060 -0.7208 -0.3365
vn -0.0015 -1.0000 0.0077
vn -0.9983 -0.0199 0.0541
vn 0.0356 0.9728 -0.2289
vn -0.0399 -0.9992 -0.0040
vn -1.0000 0.0002 -0.0097
vn -0.0633 -0.9979 0.0165
vn -0.1129 -0.9797 0.1654
vn 0.9980 -0.0048 -0.0631
vn -0.0929 0.9946 0.0455
vn -0.0565 -0.9979 0.0319
vn 0.1304 0.9910 0.0288
vn 0.0108 -0.9999 0.0115
vn -0.0366 -0.9993 0.0090
vn 0.0215 0.9997 0.0066
vn 0.0066 -1.0000 0.0055
vn -0.0495 -0.9986 0.0159
vn 0.5895 0.7997 -0.1136
vn 0.3097 0.9508 0.0031
vn 0.0745 0.9952 0.0633
vn -0.1498 0.9867 0.0632
vn 0.0527 0.9763 0.2100
vn -0.1872 0.9820 -0.0240
vn -0.8085 -0.5861 0.0537
vn 0.8441 -0.4011 0.3557
vn 0.1574 -0.9119 0.3791
vn 0.0036 -0.9176 0.3976
vn 0.4743 0.1545 -0.8667
vn 0.5015 -0.6034 0.6200
vn -0.2846 -0.2009 0.9374
vn -0.0083 0.4048 0.9144
vn -0.3449 -0.8510 0.3961
vn -0.7682 -0.6402 0.0044
vn 0.8572 -0.4001 -0.3241
vn 0.1584 -0.9243 -0.3471
vn 0.4788 0.1417 0.8664
vn -0.1096 -0.9140 -0.3905
vn 0.0503 -0.4262 -0.9032
vn 0.1204 -0.3668 -0.9225
vn -0.1166 -0.4794 -0.8698
vn -0.2405 -0.5473 -0.8016
vn -1.0000 0.0000 -0.0098
vn 0.8617 0.5050 -0.0498
vn 0.0165 -0.1566 0.9875
vn -0.3382 -0.2234 -0.9142
vn -0.2442 -0.9696 -0.0139
vn -0.5592 0.8189 0.1292
vn -0.3710 -0.9250 -0.0817
vn -0.3514 0.9362 -0.0017
usemtl None
s off
f 5//1 7//1 10//1 8//1
f 1//2 2//2 7//2 5//2
f 3//3 4//3 9//3 6//3
f 11//4 12//4 15//4 13//4
f 17//5 18//5 21//5 19//5
f 12//6 17//6 19//6 15//6
f 9//7 13//7 14//7 10//7
f 4//8 11//8 13//8 9//8
f 27//9 28//9 26//9 25//9
f 25//10 26//10 24//10 23//10
f 38//11 39//11 42//11 41//11
f 33//12 34//12 39//12 38//12
f 37//13 40//13 36//13 35//13
f 45//14 47//14 44//14 43//14
f 51//15 53//15 50//15 49//15
f 47//16 51//16 49//16 44//16
f 41//17 46//17 45//17 40//17
f 40//18 45//18 43//18 36//18
f 59//19 60//19 58//19 57//19
f 57//20 58//20 56//20 55//20
f 18//21 65//21 66//21 21//21
f 53//22 70//22 69//22 50//22
f 3//23 35//23 36//23 4//23
f 9//24 10//24 41//24 40//24
f 9//25 40//25 37//25 6//25
f 7//26 38//26 41//26 10//26
f 3//27 6//27 37//27 35//27
f 11//28 43//28 44//28 12//28
f 17//29 49//29 50//29 18//29
f 45//30 46//30 14//30 13//30
f 15//31 47//31 45//31 13//31
f 14//32 46//32 48//32 16//32
f 21//33 53//33 51//33 19//33
f 20//34 52//34 54//34 22//34
f 12//35 44//35 49//35 17//35
f 19//36 51//36 47//36 15//36
f 16//37 48//37 52//37 20//37
f 4//38 36//38 43//38 11//38
f 69//39 70//39 66//39 65//39
f 28//40 59//40 57//40 26//40
f 30//41 62//41 61//41 29//41
f 32//42 64//42 63//42 31//42
f 31//43 63//43 62//43 30//43
f 29//44 61//44 59//44 28//44
f 1//45 23//45 24//45 2//45
f 10//46 28//46 27//46 8//46
f 5//47 8//47 27//47 25//47
f 1//48 5//48 25//48 23//48
f 24//49 26//49 7//49 2//49
f 14//50 16//50 30//50 29//50
f 20//51 22//51 32//51 31//51
f 16//52 20//52 31//52 30//52
f 10//53 14//53 29//53 28//53
f 33//54 55//54 56//54 34//54
f 42//55 60//55 59//55 41//55
f 58//56 60//56 42//56 39//56
f 33//57 38//57 57//57 55//57
f 56//58 58//58 39//58 34//58
f 61//59 62//59 48//59 46//59
f 63//60 64//60 54//60 52//60
f 62//61 63//61 52//61 48//61
f 59//62 61//62 46//62 41//62
f 7//63 26//63 57//63 38//63
f 71//64 72//64 68//64 67//64
f 22//65 67//65 68//65 32//65
f 64//66 72//66 71//66 54//66
f 18//67 50//67 69//67 65//67
f 66//68 70//68 53//68 21//68
f 22//69 54//69 71//69 67//69
f 68//70 72//70 64//70 32//70
