{
    "asset" : {
        "generator" : "Khronos glTF Blender I/O v0.9.36",
        "version" : "2.0"
    },
    "scene" : 0,
    "scenes" : [
        {
            "name" : "Scene",
            "nodes" : [
                0,
                1,
                2
            ]
        }
    ],
    "nodes" : [
        {
            "name" : "Light",
            "rotation" : [
                0.16907575726509094,
                0.7558803558349609,
                -0.27217137813568115,
                0.570947527885437
            ],
            "translation" : [
                4.076245307922363,
                6.045105934143066,
                -1.0054539442062378
            ]
        },
        {
            "name" : "Camera",
            "rotation" : [
                0.483536034822464,
                0.33687159419059753,
                -0.20870360732078552,
                0.7804827094078064
            ],
            "translation" : [
                7.358891487121582,
                5.099553108215332,
                6.925790786743164
            ]
        },
        {
            "mesh" : 0,
            "name" : "O3Stc3Sc3Sas Asm 64",
            "rotation" : [
                0.7071067690849304,
                0,
                0,
                0.7071067690849304
            ],
            "scale" : [
                0.004024741239845753,
                0.004024741239845753,
                0.004024741239845753
            ],
            "translation" : [
                0,
                0.14124393463134766,
                0
            ]
        }
    ],
    "meshes" : [
        {
            "name" : "O3Stc3Sc3Sas Asm 64",
            "primitives" : [
                {
                    "attributes" : {
                        "POSITION" : 0,
                        "NORMAL" : 1
                    },
                    "indices" : 2
                },
                {
                    "attributes" : {
                        "POSITION" : 3,
                        "NORMAL" : 4
                    },
                    "indices" : 5
                }
            ]
        }
    ],
    "accessors" : [
        {
            "bufferView" : 0,
            "componentType" : 5126,
            "count" : 65535,
            "max" : [
                65.35693359375,
                40.16572952270508,
                0
            ],
            "min" : [
                -65.35696411132812,
                -49.763671875,
                -284.63189697265625
            ],
            "type" : "VEC3"
        },
        {
            "bufferView" : 1,
            "componentType" : 5126,
            "count" : 65535,
            "type" : "VEC3"
        },
        {
            "bufferView" : 2,
            "componentType" : 5123,
            "count" : 67686,
            "type" : "SCALAR"
        },
        {
            "bufferView" : 3,
            "componentType" : 5126,
            "count" : 49276,
            "max" : [
                100.80030822753906,
                88.6406478881836,
                27
            ],
            "min" : [
                -100.87937927246094,
                -70.48664855957031,
                -303.5263671875
            ],
            "type" : "VEC3"
        },
        {
            "bufferView" : 4,
            "componentType" : 5126,
            "count" : 49276,
            "type" : "VEC3"
        },
        {
            "bufferView" : 5,
            "componentType" : 5123,
            "count" : 56088,
            "type" : "SCALAR"
        }
    ],
    "bufferViews" : [
        {
            "buffer" : 0,
            "byteLength" : 786420,
            "byteOffset" : 0
        },
        {
            "buffer" : 0,
            "byteLength" : 786420,
            "byteOffset" : 786420
        },
        {
            "buffer" : 0,
            "byteLength" : 135372,
            "byteOffset" : 1572840
        },
        {
            "buffer" : 0,
            "byteLength" : 591312,
            "byteOffset" : 1708212
        },
        {
            "buffer" : 0,
            "byteLength" : 591312,
            "byteOffset" : 2299524
        },
        {
            "buffer" : 0,
            "byteLength" : 112176,
            "byteOffset" : 2890836
        }
    ],
    "buffers" : [
        {
            "byteLength" : 3003012,
            "uri" : "data:application/octet-stream;base64,"
        }
    ]
}
