{
    "asset" : {
        "generator" : "Khronos glTF Blender I/O v0.9.36",
        "version" : "2.0"
    },
    "scene" : 0,
    "scenes" : [
        {
            "name" : "Scene",
            "nodes" : [
                0,
                1,
                2
            ]
        }
    ],
    "nodes" : [
        {
            "name" : "Light",
            "rotation" : [
                0.16907575726509094,
                0.7558803558349609,
                -0.27217137813568115,
                0.570947527885437
            ],
            "scale" : [
                0.0017553460784256458,
                0.0017553463112562895,
                0.0017553464276716113
            ],
            "translation" : [
                0.25455671548843384,
                0.23165178298950195,
                -0.2500515282154083
            ]
        },
        {
            "name" : "Camera",
            "rotation" : [
                0.483536034822464,
                0.33687159419059753,
                -0.20870360732078552,
                0.7804827094078064
            ],
            "scale" : [
                0.001755345962010324,
                0.0017553467769175768,
                0.001755347242578864
            ],
            "translation" : [
                0.26031890511512756,
                0.22999203205108643,
                -0.23612947762012482
            ]
        },
        {
            "mesh" : 0,
            "name" : "Frt6T6As",
            "scale" : [
                0.0017553464276716113,
                0.0017553464276716113,
                0.0017553464276716113
            ],
            "translation" : [
                0.24740150570869446,
                0.2212885320186615,
                -0.24828661978244781
            ]
        }
    ],
    "meshes" : [
        {
            "name" : "Frt6T6As",
            "primitives" : [
                {
                    "attributes" : {
                        "POSITION" : 0,
                        "NORMAL" : 1
                    },
                    "indices" : 2
                },
                {
                    "attributes" : {
                        "POSITION" : 3,
                        "NORMAL" : 4
                    },
                    "indices" : 5
                },
                {
                    "attributes" : {
                        "POSITION" : 6,
                        "NORMAL" : 7
                    },
                    "indices" : 8
                }
            ]
        }
    ],
    "accessors" : [
        {
            "bufferView" : 0,
            "componentType" : 5126,
            "count" : 65533,
            "max" : [
                87.2007827758789,
                122.5,
                422.41937255859375
            ],
            "min" : [
                -422.41937255859375,
                -122.5,
                -87.2007827758789
            ],
            "type" : "VEC3"
        },
        {
            "bufferView" : 1,
            "componentType" : 5126,
            "count" : 65533,
            "type" : "VEC3"
        },
        {
            "bufferView" : 2,
            "componentType" : 5123,
            "count" : 71679,
            "type" : "SCALAR"
        },
        {
            "bufferView" : 3,
            "componentType" : 5126,
            "count" : 3634,
            "max" : [
                75.49851989746094,
                74.0250015258789,
                565.2054443359375
            ],
            "min" : [
                -561.305419921875,
                -115.97940063476562,
                -49.98958969116211
            ],
            "type" : "VEC3"
        },
        {
            "bufferView" : 4,
            "componentType" : 5126,
            "count" : 3634,
            "type" : "VEC3"
        },
        {
            "bufferView" : 5,
            "componentType" : 5123,
            "count" : 4416,
            "type" : "SCALAR"
        },
        {
            "bufferView" : 6,
            "componentType" : 5126,
            "count" : 3,
            "max" : [
                -25.200000762939453,
                70.8499984741211,
                350
            ],
            "min" : [
                -26.25749397277832,
                64.5,
                343.6500244140625
            ],
            "type" : "VEC3"
        },
        {
            "bufferView" : 7,
            "componentType" : 5126,
            "count" : 3,
            "type" : "VEC3"
        },
        {
            "bufferView" : 8,
            "componentType" : 5123,
            "count" : 3,
            "type" : "SCALAR"
        }
    ],
    "bufferViews" : [
        {
            "buffer" : 0,
            "byteLength" : 786396,
            "byteOffset" : 0
        },
        {
            "buffer" : 0,
            "byteLength" : 786396,
            "byteOffset" : 786396
        },
        {
            "buffer" : 0,
            "byteLength" : 143358,
            "byteOffset" : 1572792
        },
        {
            "buffer" : 0,
            "byteLength" : 43608,
            "byteOffset" : 1716152
        },
        {
            "buffer" : 0,
            "byteLength" : 43608,
            "byteOffset" : 1759760
        },
        {
            "buffer" : 0,
            "byteLength" : 8832,
            "byteOffset" : 1803368
        },
        {
            "buffer" : 0,
            "byteLength" : 36,
            "byteOffset" : 1812200
        },
        {
            "buffer" : 0,
            "byteLength" : 36,
            "byteOffset" : 1812236
        },
        {
            "buffer" : 0,
            "byteLength" : 6,
            "byteOffset" : 1812272
        }
    ],
    "buffers" : [
        {
            "byteLength" : 1812280,
            "uri" : "data:application/octet-stream;base64,"
        }
    ]
}
