{
    "asset" : {
        "generator" : "Khronos glTF Blender I/O v0.9.36",
        "version" : "2.0"
    },
    "scene" : 0,
    "scenes" : [
        {
            "name" : "Scene",
            "nodes" : [
                0,
                1,
                2
            ]
        }
    ],
    "nodes" : [
        {
            "name" : "Light",
            "rotation" : [
                0.16907575726509094,
                0.7558803558349609,
                -0.27217137813568115,
                0.570947527885437
            ],
            "translation" : [
                4.076245307922363,
                5.903861999511719,
                -1.0054539442062378
            ]
        },
        {
            "name" : "Camera",
            "rotation" : [
                0.483536034822464,
                0.33687159419059753,
                -0.20870360732078552,
                0.7804827094078064
            ],
            "translation" : [
                7.358891487121582,
                4.958309173583984,
                6.925790786743164
            ]
        },
        {
            "mesh" : 0,
            "name" : "prueba_asm",
            "rotation" : [
                0.7071068286895752,
                0,
                0,
                0.7071067094802856
            ],
            "scale" : [
                0.015568934381008148,
                0.015568934381008148,
                0.015568934381008148
            ],
            "translation" : [
                -0.2037341147661209,
                -2.3909950256347656,
                0.30644965171813965
            ]
        }
    ],
    "materials" : [
        {
            "doubleSided" : true,
            "name" : "MTL0",
            "pbrMetallicRoughness" : {
                "baseColorFactor" : [
                    1,
                    0,
                    0,
                    1
                ],
                "metallicFactor" : 0,
                "roughnessFactor" : 1
            }
        }
    ],
    "meshes" : [
        {
            "name" : "prueba_asm",
            "primitives" : [
                {
                    "attributes" : {
                        "POSITION" : 0,
                        "NORMAL" : 1,
                        "TEXCOORD_0" : 2
                    },
                    "indices" : 3,
                    "material" : 0
                }
            ]
        }
    ],
    "accessors" : [
        {
            "bufferView" : 0,
            "componentType" : 5126,
            "count" : 1797,
            "max" : [
                48.551170349121094,
                -9.923001289367676,
                -161.4361572265625
            ],
            "min" : [
                -48.55117416381836,
                -49.71220397949219,
                -197.11370849609375
            ],
            "type" : "VEC3"
        },
        {
            "bufferView" : 1,
            "componentType" : 5126,
            "count" : 1797,
            "type" : "VEC3"
        },
        {
            "bufferView" : 2,
            "componentType" : 5126,
            "count" : 1797,
            "type" : "VEC2"
        },
        {
            "bufferView" : 3,
            "componentType" : 5123,
            "count" : 3768,
            "type" : "SCALAR"
        }
    ],
    "bufferViews" : [
        {
            "buffer" : 0,
            "byteLength" : 21564,
            "byteOffset" : 0
        },
        {
            "buffer" : 0,
            "byteLength" : 21564,
            "byteOffset" : 21564
        },
        {
            "buffer" : 0,
            "byteLength" : 14376,
            "byteOffset" : 43128
        },
        {
            "buffer" : 0,
            "byteLength" : 7536,
            "byteOffset" : 57504
        }
    ],
    "buffers" : [
        {
            "byteLength" : 65040,
            "uri" : "data:application/octet-stream;base64,"
        }
    ]
}
