{
    "asset" : {
        "generator" : "Khronos glTF Blender I/O v0.9.36",
        "version" : "2.0"
    },
    "scene" : 0,
    "scenes" : [
        {
            "name" : "Scene",
            "nodes" : [
                0,
                1,
                2
            ]
        }
    ],
    "nodes" : [
        {
            "name" : "Light",
            "rotation" : [
                0.16907575726509094,
                0.7558803558349609,
                -0.27217137813568115,
                0.570947527885437
            ],
            "translation" : [
                4.076245307922363,
                5.903861999511719,
                -1.0054539442062378
            ]
        },
        {
            "name" : "Camera",
            "rotation" : [
                0.483536034822464,
                0.33687159419059753,
                -0.20870360732078552,
                0.7804827094078064
            ],
            "translation" : [
                7.358891487121582,
                4.958309173583984,
                6.925790786743164
            ]
        },
        {
            "mesh" : 0,
            "name" : "o3stc3sc3sas_asm_642",
            "rotation" : [
                0.7071068286895752,
                0,
                0,
                0.7071067094802856
            ],
            "scale" : [
                0.005618202034384012,
                0.005618202034384012,
                0.005618202034384012
            ]
        }
    ],
    "materials" : [
        {
            "doubleSided" : true,
            "name" : "MTL0.001",
            "pbrMetallicRoughness" : {
                "baseColorFactor" : [
                    0.9020000100135803,
                    0.9020000100135803,
                    0.9020000100135803,
                    1
                ],
                "metallicFactor" : 0,
                "roughnessFactor" : 1
            }
        },
        {
            "doubleSided" : true,
            "name" : "MTL1",
            "pbrMetallicRoughness" : {
                "baseColorFactor" : [
                    0.640999972820282,
                    0.640999972820282,
                    0.640999972820282,
                    1
                ],
                "metallicFactor" : 0,
                "roughnessFactor" : 1
            }
        }
    ],
    "meshes" : [
        {
            "name" : "o3stc3sc3sas_asm_642",
            "primitives" : [
                {
                    "attributes" : {
                        "POSITION" : 0,
                        "NORMAL" : 1,
                        "TEXCOORD_0" : 2
                    },
                    "indices" : 3,
                    "material" : 0
                },
                {
                    "attributes" : {
                        "POSITION" : 4,
                        "NORMAL" : 5,
                        "TEXCOORD_0" : 6
                    },
                    "indices" : 7,
                    "material" : 1
                }
            ]
        }
    ],
    "accessors" : [
        {
            "bufferView" : 0,
            "componentType" : 5126,
            "count" : 4898,
            "max" : [
                48.551170349121094,
                -9.923001289367676,
                -161.4361572265625
            ],
            "min" : [
                -48.55117416381836,
                -49.71220397949219,
                -277.11370849609375
            ],
            "type" : "VEC3"
        },
        {
            "bufferView" : 1,
            "componentType" : 5126,
            "count" : 4898,
            "type" : "VEC3"
        },
        {
            "bufferView" : 2,
            "componentType" : 5126,
            "count" : 4898,
            "type" : "VEC2"
        },
        {
            "bufferView" : 3,
            "componentType" : 5123,
            "count" : 11556,
            "type" : "SCALAR"
        },
        {
            "bufferView" : 4,
            "componentType" : 5126,
            "count" : 8910,
            "max" : [
                65.35693359375,
                40.16572952270508,
                0
            ],
            "min" : [
                -65.35696411132812,
                -5.923000812530518,
                -284.63189697265625
            ],
            "type" : "VEC3"
        },
        {
            "bufferView" : 5,
            "componentType" : 5126,
            "count" : 8910,
            "type" : "VEC3"
        },
        {
            "bufferView" : 6,
            "componentType" : 5126,
            "count" : 8910,
            "type" : "VEC2"
        },
        {
            "bufferView" : 7,
            "componentType" : 5123,
            "count" : 21810,
            "type" : "SCALAR"
        }
    ],
    "bufferViews" : [
        {
            "buffer" : 0,
            "byteLength" : 58776,
            "byteOffset" : 0
        },
        {
            "buffer" : 0,
            "byteLength" : 58776,
            "byteOffset" : 58776
        },
        {
            "buffer" : 0,
            "byteLength" : 39184,
            "byteOffset" : 117552
        },
        {
            "buffer" : 0,
            "byteLength" : 23112,
            "byteOffset" : 156736
        },
        {
            "buffer" : 0,
            "byteLength" : 106920,
            "byteOffset" : 179848
        },
        {
            "buffer" : 0,
            "byteLength" : 106920,
            "byteOffset" : 286768
        },
        {
            "buffer" : 0,
            "byteLength" : 71280,
            "byteOffset" : 393688
        },
        {
            "buffer" : 0,
            "byteLength" : 43620,
            "byteOffset" : 464968
        }
    ],
    "buffers" : [
        {
            "byteLength" : 508588,
            "uri" : "data:application/octet-stream;base64,"
        }
    ]
}
