mtllib prt00033.mtl

v  30.000000 -10.000000 201.300000
v  30.000000 -10.000000 201.300000
v  30.000000 -10.000000 201.300000
v  -10.000000 -10.000000 201.300000
v  -10.000000 -10.000000 201.300000
v  -10.000000 -10.000000 201.300000
v  -10.000000 0.000000 201.300000
v  -10.000000 0.000000 201.300000
v  -10.000000 0.000000 201.300000
v  30.000000 0.000000 201.300000
v  30.000000 0.000000 201.300000
v  30.000000 0.000000 201.300000
v  30.000000 -10.000000 99.000000
v  30.000000 -10.000000 99.000000
v  30.000000 -10.000000 99.000000
v  30.000000 0.000000 99.000000
v  30.000000 0.000000 99.000000
v  30.000000 0.000000 99.000000
v  -10.000000 0.000000 99.000000
v  -10.000000 0.000000 99.000000
v  -10.000000 0.000000 99.000000
v  -10.000000 -10.000000 99.000000
v  -10.000000 -10.000000 99.000000
v  -10.000000 -10.000000 99.000000

vt  1.000000 0.000000 0.000000
vt  1.000000 0.000000 0.000000
vt  1.000000 0.000000 0.000000
vt  0.000000 0.000000 0.000000
vt  0.000000 0.000000 0.000000
vt  0.000000 0.000000 0.000000
vt  0.000000 1.000000 0.000000
vt  0.000000 1.000000 0.000000
vt  0.000000 1.000000 0.000000
vt  1.000000 1.000000 0.000000
vt  1.000000 1.000000 0.000000
vt  1.000000 1.000000 0.000000
vt  1.000000 0.000000 0.000000
vt  1.000000 0.000000 0.000000
vt  1.000000 0.000000 0.000000
vt  1.000000 1.000000 0.000000
vt  1.000000 1.000000 0.000000
vt  1.000000 1.000000 0.000000
vt  0.000000 1.000000 0.000000
vt  0.000000 1.000000 0.000000
vt  0.000000 1.000000 0.000000
vt  0.000000 0.000000 0.000000
vt  0.000000 0.000000 0.000000
vt  0.000000 0.000000 0.000000

vn  0.000000 0.000000 1.000000
vn  0.000000 -1.000000 0.000000
vn  1.000000 0.000000 0.000000
vn  0.000000 0.000000 1.000000
vn  0.000000 -1.000000 0.000000
vn  -1.000000 0.000000 0.000000
vn  0.000000 0.000000 1.000000
vn  0.000000 1.000000 0.000000
vn  -1.000000 0.000000 0.000000
vn  0.000000 0.000000 1.000000
vn  1.000000 0.000000 0.000000
vn  0.000000 1.000000 0.000000
vn  0.000000 0.000000 -1.000000
vn  0.000000 -1.000000 0.000000
vn  1.000000 0.000000 0.000000
vn  0.000000 0.000000 -1.000000
vn  1.000000 0.000000 0.000000
vn  0.000000 1.000000 0.000000
vn  0.000000 0.000000 -1.000000
vn  0.000000 1.000000 0.000000
vn  -1.000000 0.000000 0.000000
vn  0.000000 0.000000 -1.000000
vn  0.000000 -1.000000 0.000000
vn  -1.000000 0.000000 0.000000


g 0
g 1
usemtl MTL0
f 7/7/7  4/4/4  1/1/1
g 2
usemtl MTL1
f 23/23/23  2/2/2  5/5/5
g 3
usemtl MTL0
f 10/10/10  7/7/7  1/1/1
g 4
usemtl MTL2
f 15/15/15  11/11/11  3/3/3
g 5
usemtl MTL1
f 23/23/23  14/14/14  2/2/2
g 6
usemtl MTL3
f 21/21/21  6/6/6  9/9/9
f 24/24/24  6/6/6  21/21/21
g 7
usemtl MTL4
f 18/18/18  8/8/8  12/12/12
f 20/20/20  8/8/8  18/18/18
g 8
usemtl MTL2
f 17/17/17  11/11/11  15/15/15
g 9
usemtl MTL3
f 22/22/22  16/16/16  13/13/13
f 22/22/22  19/19/19  16/16/16
