{
    "asset" : {
        "generator" : "Khronos glTF Blender I/O v0.9.36",
        "version" : "2.0"
    },
    "scene" : 0,
    "scenes" : [
        {
            "name" : "Scene",
            "nodes" : [
                0,
                1,
                2,
                3,
                4,
                5
            ]
        }
    ],
    "nodes" : [
        {
            "mesh" : 0,
            "name" : "componentes",
            "rotation" : [
                0.7071068286895752,
                0,
                0,
                0.7071067094802856
            ],
            "scale" : [
                0.002188337268307805,
                0.0021883375011384487,
                0.0021883375011384487
            ],
            "translation" : [
                -0.010052129626274109,
                1.0338338613510132,
                -0.10038843005895615
            ]
        },
        {
            "mesh" : 1,
            "name" : "tubo",
            "rotation" : [
                0.7071068286895752,
                0,
                0,
                0.7071067094802856
            ],
            "scale" : [
                0.002188337268307805,
                0.0021883375011384487,
                0.0021883375011384487
            ],
            "translation" : [
                -0.010052129626274109,
                1.0338338613510132,
                -0.10038843005895615
            ]
        },
        {
            "mesh" : 2,
            "name" : "cuerpo2",
            "rotation" : [
                0.7071068286895752,
                0,
                0,
                0.7071067094802856
            ],
            "scale" : [
                0.002188337268307805,
                0.0021883375011384487,
                0.0021883375011384487
            ],
            "translation" : [
                -0.010052129626274109,
                1.0338338613510132,
                -0.10038843005895615
            ]
        },
        {
            "mesh" : 3,
            "name" : "cuerpo1",
            "rotation" : [
                0.7071068286895752,
                0,
                0,
                0.7071067094802856
            ],
            "scale" : [
                0.002188337268307805,
                0.0021883375011384487,
                0.0021883375011384487
            ],
            "translation" : [
                -0.010052129626274109,
                1.0338338613510132,
                -0.10038843005895615
            ]
        },
        {
            "mesh" : 4,
            "name" : "pin",
            "rotation" : [
                0.7071068286895752,
                0,
                0,
                0.7071067094802856
            ],
            "scale" : [
                0.002188337268307805,
                0.0021883375011384487,
                0.0021883375011384487
            ],
            "translation" : [
                -0.010052129626274109,
                1.0338338613510132,
                -0.10038843005895615
            ]
        },
        {
            "mesh" : 5,
            "name" : "politron",
            "rotation" : [
                0.7071068286895752,
                0,
                0,
                0.7071067094802856
            ],
            "scale" : [
                0.0018538900185376406,
                0.0018538901349529624,
                0.0018538901349529624
            ],
            "translation" : [
                -0.007847699336707592,
                0.9601132869720459,
                -0.09963269531726837
            ]
        }
    ],
    "meshes" : [
        {
            "name" : "Gt7Sj3Sa",
            "primitives" : [
                {
                    "attributes" : {
                        "POSITION" : 0,
                        "NORMAL" : 1
                    },
                    "indices" : 2
                }
            ]
        },
        {
            "name" : "Gt7Sj3Sa.001",
            "primitives" : [
                {
                    "attributes" : {
                        "POSITION" : 3,
                        "NORMAL" : 4
                    },
                    "indices" : 5
                }
            ]
        },
        {
            "name" : "Gt7Sj3Sa.002",
            "primitives" : [
                {
                    "attributes" : {
                        "POSITION" : 6,
                        "NORMAL" : 7
                    },
                    "indices" : 8
                }
            ]
        },
        {
            "name" : "Gt7Sj3Sa.003",
            "primitives" : [
                {
                    "attributes" : {
                        "POSITION" : 9,
                        "NORMAL" : 10
                    },
                    "indices" : 11
                }
            ]
        },
        {
            "name" : "Gt7Sj3Sa.004",
            "primitives" : [
                {
                    "attributes" : {
                        "POSITION" : 12,
                        "NORMAL" : 13
                    },
                    "indices" : 14
                }
            ]
        },
        {
            "name" : "Gt7Sj3Sa.005",
            "primitives" : [
                {
                    "attributes" : {
                        "POSITION" : 15,
                        "NORMAL" : 16
                    },
                    "indices" : 17
                }
            ]
        }
    ],
    "accessors" : [
        {
            "bufferView" : 0,
            "componentType" : 5126,
            "count" : 45138,
            "max" : [
                97.77558898925781,
                109.06371307373047,
                420
            ],
            "min" : [
                -97.77558898925781,
                -236.15280151367188,
                -72.41938781738281
            ],
            "type" : "VEC3"
        },
        {
            "bufferView" : 1,
            "componentType" : 5126,
            "count" : 45138,
            "type" : "VEC3"
        },
        {
            "bufferView" : 2,
            "componentType" : 5123,
            "count" : 45192,
            "type" : "SCALAR"
        },
        {
            "bufferView" : 3,
            "componentType" : 5126,
            "count" : 840,
            "max" : [
                55,
                57,
                294.79998779296875
            ],
            "min" : [
                -55,
                -53,
                -275.6870422363281
            ],
            "type" : "VEC3"
        },
        {
            "bufferView" : 4,
            "componentType" : 5126,
            "count" : 840,
            "type" : "VEC3"
        },
        {
            "bufferView" : 5,
            "componentType" : 5123,
            "count" : 840,
            "type" : "SCALAR"
        },
        {
            "bufferView" : 6,
            "componentType" : 5126,
            "count" : 5856,
            "max" : [
                99.77558898925781,
                0,
                124.71466064453125
            ],
            "min" : [
                -99.77558898925781,
                -100,
                -87.71466064453125
            ],
            "type" : "VEC3"
        },
        {
            "bufferView" : 7,
            "componentType" : 5126,
            "count" : 5856,
            "type" : "VEC3"
        },
        {
            "bufferView" : 8,
            "componentType" : 5123,
            "count" : 5856,
            "type" : "SCALAR"
        },
        {
            "bufferView" : 9,
            "componentType" : 5126,
            "count" : 7288,
            "max" : [
                61,
                117.82518005371094,
                418.5073547363281
            ],
            "min" : [
                -61,
                -20,
                313
            ],
            "type" : "VEC3"
        },
        {
            "bufferView" : 10,
            "componentType" : 5126,
            "count" : 7288,
            "type" : "VEC3"
        },
        {
            "bufferView" : 11,
            "componentType" : 5123,
            "count" : 7296,
            "type" : "SCALAR"
        },
        {
            "bufferView" : 12,
            "componentType" : 5126,
            "count" : 216,
            "max" : [
                13.90778636932373,
                164.39938354492188,
                386.5
            ],
            "min" : [
                -13.894338607788086,
                29.74494171142578,
                358.5
            ],
            "type" : "VEC3"
        },
        {
            "bufferView" : 13,
            "componentType" : 5126,
            "count" : 216,
            "type" : "VEC3"
        },
        {
            "bufferView" : 14,
            "componentType" : 5123,
            "count" : 216,
            "type" : "SCALAR"
        },
        {
            "bufferView" : 15,
            "componentType" : 5126,
            "count" : 560,
            "max" : [
                49,
                51,
                241.44039916992188
            ],
            "min" : [
                -49,
                -47,
                221.44039916992188
            ],
            "type" : "VEC3"
        },
        {
            "bufferView" : 16,
            "componentType" : 5126,
            "count" : 560,
            "type" : "VEC3"
        },
        {
            "bufferView" : 17,
            "componentType" : 5123,
            "count" : 576,
            "type" : "SCALAR"
        }
    ],
    "bufferViews" : [
        {
            "buffer" : 0,
            "byteLength" : 541656,
            "byteOffset" : 0
        },
        {
            "buffer" : 0,
            "byteLength" : 541656,
            "byteOffset" : 541656
        },
        {
            "buffer" : 0,
            "byteLength" : 90384,
            "byteOffset" : 1083312
        },
        {
            "buffer" : 0,
            "byteLength" : 10080,
            "byteOffset" : 1173696
        },
        {
            "buffer" : 0,
            "byteLength" : 10080,
            "byteOffset" : 1183776
        },
        {
            "buffer" : 0,
            "byteLength" : 1680,
            "byteOffset" : 1193856
        },
        {
            "buffer" : 0,
            "byteLength" : 70272,
            "byteOffset" : 1195536
        },
        {
            "buffer" : 0,
            "byteLength" : 70272,
            "byteOffset" : 1265808
        },
        {
            "buffer" : 0,
            "byteLength" : 11712,
            "byteOffset" : 1336080
        },
        {
            "buffer" : 0,
            "byteLength" : 87456,
            "byteOffset" : 1347792
        },
        {
            "buffer" : 0,
            "byteLength" : 87456,
            "byteOffset" : 1435248
        },
        {
            "buffer" : 0,
            "byteLength" : 14592,
            "byteOffset" : 1522704
        },
        {
            "buffer" : 0,
            "byteLength" : 2592,
            "byteOffset" : 1537296
        },
        {
            "buffer" : 0,
            "byteLength" : 2592,
            "byteOffset" : 1539888
        },
        {
            "buffer" : 0,
            "byteLength" : 432,
            "byteOffset" : 1542480
        },
        {
            "buffer" : 0,
            "byteLength" : 6720,
            "byteOffset" : 1542912
        },
        {
            "buffer" : 0,
            "byteLength" : 6720,
            "byteOffset" : 1549632
        },
        {
            "buffer" : 0,
            "byteLength" : 1152,
            "byteOffset" : 1556352
        }
    ],
    "buffers" : [
        {
            "byteLength" : 1557504,
            "uri" : "data:application/octet-stream;base64,"
        }
    ]
}
