{
    "asset" : {
        "generator" : "Khronos glTF Blender I/O v0.9.36",
        "version" : "2.0"
    },
    "scene" : 0,
    "scenes" : [
        {
            "name" : "Scene",
            "nodes" : [
                0,
                1,
                2
            ]
        }
    ],
    "nodes" : [
        {
            "name" : "Light",
            "rotation" : [
                0.16907575726509094,
                0.7558803558349609,
                -0.27217137813568115,
                0.570947527885437
            ],
            "translation" : [
                4.076245307922363,
                5.903861999511719,
                -1.0054539442062378
            ]
        },
        {
            "name" : "Camera",
            "rotation" : [
                0.483536034822464,
                0.33687159419059753,
                -0.20870360732078552,
                0.7804827094078064
            ],
            "translation" : [
                7.358891487121582,
                4.958309173583984,
                6.925790786743164
            ]
        },
        {
            "mesh" : 0,
            "name" : "5417",
            "rotation" : [
                0.7071067690849304,
                0,
                0,
                0.7071067690849304
            ],
            "scale" : [
                0.009172743186354637,
                0.009172743186354637,
                0.009172743186354637
            ]
        }
    ],
    "meshes" : [
        {
            "name" : "5417",
            "primitives" : [
                {
                    "attributes" : {
                        "POSITION" : 0,
                        "NORMAL" : 1
                    },
                    "indices" : 2
                },
                {
                    "attributes" : {
                        "POSITION" : 3,
                        "NORMAL" : 4
                    },
                    "indices" : 5
                },
                {
                    "attributes" : {
                        "POSITION" : 6,
                        "NORMAL" : 7
                    },
                    "indices" : 8
                }
            ]
        }
    ],
    "accessors" : [
        {
            "bufferView" : 0,
            "componentType" : 5126,
            "count" : 65534,
            "max" : [
                76.19999694824219,
                101.5999984741211,
                0
            ],
            "min" : [
                -76.19999694824219,
                -114.29981231689453,
                -29.332590103149414
            ],
            "type" : "VEC3"
        },
        {
            "bufferView" : 1,
            "componentType" : 5126,
            "count" : 65534,
            "type" : "VEC3"
        },
        {
            "bufferView" : 2,
            "componentType" : 5123,
            "count" : 68691,
            "type" : "SCALAR"
        },
        {
            "bufferView" : 3,
            "componentType" : 5126,
            "count" : 7406,
            "max" : [
                72.10358428955078,
                84.5855941772461,
                -3.395946979522705
            ],
            "min" : [
                -72.1035385131836,
                -92.7927017211914,
                -20.85000991821289
            ],
            "type" : "VEC3"
        },
        {
            "bufferView" : 4,
            "componentType" : 5126,
            "count" : 7406,
            "type" : "VEC3"
        },
        {
            "bufferView" : 5,
            "componentType" : 5123,
            "count" : 7812,
            "type" : "SCALAR"
        },
        {
            "bufferView" : 6,
            "componentType" : 5126,
            "count" : 3,
            "max" : [
                16.255422592163086,
                5.667068004608154,
                -17.835174560546875
            ],
            "min" : [
                2.2445051670074463,
                5.608310222625732,
                -17.83650016784668
            ],
            "type" : "VEC3"
        },
        {
            "bufferView" : 7,
            "componentType" : 5126,
            "count" : 3,
            "type" : "VEC3"
        },
        {
            "bufferView" : 8,
            "componentType" : 5123,
            "count" : 3,
            "type" : "SCALAR"
        }
    ],
    "bufferViews" : [
        {
            "buffer" : 0,
            "byteLength" : 786408,
            "byteOffset" : 0
        },
        {
            "buffer" : 0,
            "byteLength" : 786408,
            "byteOffset" : 786408
        },
        {
            "buffer" : 0,
            "byteLength" : 137382,
            "byteOffset" : 1572816
        },
        {
            "buffer" : 0,
            "byteLength" : 88872,
            "byteOffset" : 1710200
        },
        {
            "buffer" : 0,
            "byteLength" : 88872,
            "byteOffset" : 1799072
        },
        {
            "buffer" : 0,
            "byteLength" : 15624,
            "byteOffset" : 1887944
        },
        {
            "buffer" : 0,
            "byteLength" : 36,
            "byteOffset" : 1903568
        },
        {
            "buffer" : 0,
            "byteLength" : 36,
            "byteOffset" : 1903604
        },
        {
            "buffer" : 0,
            "byteLength" : 6,
            "byteOffset" : 1903640
        }
    ],
    "buffers" : [
        {
            "byteLength" : 1903648,
            "uri" : "data:application/octet-stream;base64,"
        }
    ]
}
