{
    "asset" : {
        "generator" : "Khronos glTF Blender I/O v0.9.36",
        "version" : "2.0"
    },
    "scene" : 0,
    "scenes" : [
        {
            "name" : "Scene",
            "nodes" : [
                0,
                1,
                2,
                3,
                4
            ]
        }
    ],
    "nodes" : [
        {
            "name" : "Light",
            "rotation" : [
                0.16907575726509094,
                0.7558803558349609,
                -0.27217137813568115,
                0.570947527885437
            ],
            "translation" : [
                4.076245307922363,
                5.903861999511719,
                -1.0054539442062378
            ]
        },
        {
            "name" : "Camera",
            "rotation" : [
                0.483536034822464,
                0.33687159419059753,
                -0.20870360732078552,
                0.7804827094078064
            ],
            "translation" : [
                7.358891487121582,
                4.958309173583984,
                6.925790786743164
            ]
        },
        {
            "mesh" : 0,
            "name" : "Prueba",
            "scale" : [
                0.003326373640447855,
                0.003326373640447855,
                0.003326373640447855
            ],
            "translation" : [
                -0.002420401433482766,
                0.2259402871131897,
                0.4216357469558716
            ]
        },
        {
            "mesh" : 1,
            "name" : "Prueba.001",
            "scale" : [
                0.003326373640447855,
                0.003326373640447855,
                0.003326373640447855
            ],
            "translation" : [
                -0.002420401433482766,
                0.2259402871131897,
                0.4216357469558716
            ]
        },
        {
            "mesh" : 2,
            "name" : "Prueba.002",
            "scale" : [
                0.003326373640447855,
                0.003326373640447855,
                0.003326373640447855
            ],
            "translation" : [
                -0.002420401433482766,
                0.2259402871131897,
                0.4216357469558716
            ]
        }
    ],
    "materials" : [
        {
            "doubleSided" : true,
            "name" : "Material.003",
            "pbrMetallicRoughness" : {
                "baseColorTexture" : {
                    "index" : 0,
                    "texCoord" : 0
                },
                "metallicFactor" : 0,
                "roughnessFactor" : 0.5
            }
        },
        {
            "doubleSided" : true,
            "name" : "Material.001",
            "pbrMetallicRoughness" : {
                "baseColorTexture" : {
                    "index" : 1,
                    "texCoord" : 0
                },
                "metallicFactor" : 0,
                "roughnessFactor" : 0.5
            }
        },
        {
            "doubleSided" : true,
            "name" : "Material.002",
            "pbrMetallicRoughness" : {
                "baseColorTexture" : {
                    "index" : 2,
                    "texCoord" : 0
                },
                "metallicFactor" : 0,
                "roughnessFactor" : 0.5
            }
        }
    ],
    "meshes" : [
        {
            "name" : "Prueba",
            "primitives" : [
                {
                    "attributes" : {
                        "POSITION" : 0,
                        "NORMAL" : 1,
                        "TEXCOORD_0" : 2
                    },
                    "indices" : 3,
                    "material" : 0
                }
            ]
        },
        {
            "name" : "Prueba.001",
            "primitives" : [
                {
                    "attributes" : {
                        "POSITION" : 4,
                        "NORMAL" : 5,
                        "TEXCOORD_0" : 6
                    },
                    "indices" : 7,
                    "material" : 1
                }
            ]
        },
        {
            "name" : "Prueba.002",
            "primitives" : [
                {
                    "attributes" : {
                        "POSITION" : 8,
                        "NORMAL" : 9,
                        "TEXCOORD_0" : 10
                    },
                    "indices" : 11,
                    "material" : 2
                }
            ]
        }
    ],
    "textures" : [
        {
            "source" : 0
        },
        {
            "source" : 1
        },
        {
            "source" : 1
        }
    ],
    "images" : [
        {
            "bufferView" : 4,
            "mimeType" : "image/png",
            "name" : "Material"
        },
        {
            "bufferView" : 9,
            "mimeType" : "image/png",
            "name" : "Material"
        }
    ],
    "accessors" : [
        {
            "bufferView" : 0,
            "componentType" : 5126,
            "count" : 49804,
            "max" : [
                99.50157165527344,
                39.57699966430664,
                22.979400634765625
            ],
            "min" : [
                -99.37354278564453,
                -49.75408172607422,
                -311.04730224609375
            ],
            "type" : "VEC3"
        },
        {
            "bufferView" : 1,
            "componentType" : 5126,
            "count" : 49804,
            "type" : "VEC3"
        },
        {
            "bufferView" : 2,
            "componentType" : 5126,
            "count" : 49804,
            "type" : "VEC2"
        },
        {
            "bufferView" : 3,
            "componentType" : 5123,
            "count" : 58764,
            "type" : "SCALAR"
        },
        {
            "bufferView" : 5,
            "componentType" : 5126,
            "count" : 17316,
            "max" : [
                65.35694122314453,
                40.16572952270508,
                0
            ],
            "min" : [
                -65.35694122314453,
                -5.923001289367676,
                -284.6318664550781
            ],
            "type" : "VEC3"
        },
        {
            "bufferView" : 6,
            "componentType" : 5126,
            "count" : 17316,
            "type" : "VEC3"
        },
        {
            "bufferView" : 7,
            "componentType" : 5126,
            "count" : 17316,
            "type" : "VEC2"
        },
        {
            "bufferView" : 8,
            "componentType" : 5123,
            "count" : 20316,
            "type" : "SCALAR"
        },
        {
            "bufferView" : 10,
            "componentType" : 5126,
            "count" : 4196,
            "max" : [
                80,
                88.31022644042969,
                27
            ],
            "min" : [
                -80,
                -70.15623474121094,
                0
            ],
            "type" : "VEC3"
        },
        {
            "bufferView" : 11,
            "componentType" : 5126,
            "count" : 4196,
            "type" : "VEC3"
        },
        {
            "bufferView" : 12,
            "componentType" : 5126,
            "count" : 4196,
            "type" : "VEC2"
        },
        {
            "bufferView" : 13,
            "componentType" : 5123,
            "count" : 4956,
            "type" : "SCALAR"
        }
    ],
    "bufferViews" : [
        {
            "buffer" : 0,
            "byteLength" : 597648,
            "byteOffset" : 0
        },
        {
            "buffer" : 0,
            "byteLength" : 597648,
            "byteOffset" : 597648
        },
        {
            "buffer" : 0,
            "byteLength" : 398432,
            "byteOffset" : 1195296
        },
        {
            "buffer" : 0,
            "byteLength" : 117528,
            "byteOffset" : 1593728
        },
        {
            "buffer" : 0,
            "byteLength" : 20565,
            "byteOffset" : 1711256
        },
        {
            "buffer" : 0,
            "byteLength" : 207792,
            "byteOffset" : 1731824
        },
        {
            "buffer" : 0,
            "byteLength" : 207792,
            "byteOffset" : 1939616
        },
        {
            "buffer" : 0,
            "byteLength" : 138528,
            "byteOffset" : 2147408
        },
        {
            "buffer" : 0,
            "byteLength" : 40632,
            "byteOffset" : 2285936
        },
        {
            "buffer" : 0,
            "byteLength" : 20565,
            "byteOffset" : 2326568
        },
        {
            "buffer" : 0,
            "byteLength" : 50352,
            "byteOffset" : 2347136
        },
        {
            "buffer" : 0,
            "byteLength" : 50352,
            "byteOffset" : 2397488
        },
        {
            "buffer" : 0,
            "byteLength" : 33568,
            "byteOffset" : 2447840
        },
        {
            "buffer" : 0,
            "byteLength" : 9912,
            "byteOffset" : 2481408
        }
    ],
    "buffers" : [
        {
            "byteLength" : 2491320,
            "uri" : "data:application/octet-stream;base64,"
        }
    ]
}
