{
    "asset" : {
        "generator" : "Khronos glTF Blender I/O v0.9.36",
        "version" : "2.0"
    },
    "scene" : 0,
    "scenes" : [
        {
            "name" : "Scene",
            "nodes" : [
                0,
                1,
                2,
                3,
                4,
                5,
                6,
                7,
                8
            ]
        }
    ],
    "nodes" : [
        {
            "name" : "Light",
            "rotation" : [
                0.16907575726509094,
                0.7558803558349609,
                -0.27217137813568115,
                0.570947527885437
            ],
            "scale" : [
                0.4837740361690521,
                0.4837740361690521,
                0.4837740361690521
            ],
            "translation" : [
                1.9805490970611572,
                2.826176643371582,
                -0.5139927864074707
            ]
        },
        {
            "name" : "Camera",
            "rotation" : [
                0.483536034822464,
                0.33687159419059753,
                -0.20870360732078552,
                0.7804827094078064
            ],
            "scale" : [
                0.4837740957736969,
                0.4837740957736969,
                0.4837741255760193
            ],
            "translation" : [
                3.5686087608337402,
                2.3687424659729004,
                3.3229379653930664
            ]
        },
        {
            "name" : "Light.001",
            "rotation" : [
                0.5232754945755005,
                0.34203392267227173,
                -0.7269423604011536,
                0.284166157245636
            ],
            "scale" : [
                0.4837743043899536,
                0.4837740361690521,
                0.4837740361690521
            ],
            "translation" : [
                1.9805490970611572,
                2.8261771202087402,
                -0.5139927864074707
            ]
        },
        {
            "name" : "Camera.001",
            "rotation" : [
                0.8937963247299194,
                0.09062855690717697,
                -0.3857799172401428,
                0.20997287333011627
            ],
            "scale" : [
                0.4837740957736969,
                0.4837741255760193,
                0.4837740957736969
            ],
            "translation" : [
                3.5686087608337402,
                2.3687424659729004,
                3.322939395904541
            ]
        },
        {
            "mesh" : 0,
            "name" : "Gt7Sj3Sa",
            "rotation" : [
                0.7071068286895752,
                0,
                0,
                0.7071067094802856
            ],
            "scale" : [
                0.0021810727193951607,
                0.0021810729522258043,
                0.0021810729522258043
            ],
            "translation" : [
                0.008567512035369873,
                0.9175114631652832,
                -0.027580469846725464
            ]
        },
        {
            "mesh" : 1,
            "name" : "Gt7Sj3Sa.001",
            "rotation" : [
                0.7071068286895752,
                0,
                0,
                0.7071067094802856
            ],
            "scale" : [
                0.0021810727193951607,
                0.0021810729522258043,
                0.0021810729522258043
            ],
            "translation" : [
                0.008567512035369873,
                0.9175114631652832,
                -0.027580469846725464
            ]
        },
        {
            "mesh" : 2,
            "name" : "Gt7Sj3Sa.002",
            "rotation" : [
                0.7071068286895752,
                0,
                0,
                0.7071067094802856
            ],
            "scale" : [
                0.0021810727193951607,
                0.0021810729522258043,
                0.0021810729522258043
            ],
            "translation" : [
                0.008567512035369873,
                0.9175114631652832,
                -0.027580469846725464
            ]
        },
        {
            "mesh" : 3,
            "name" : "Gt7Sj3Sa.003",
            "rotation" : [
                0.7071068286895752,
                0,
                0,
                0.7071067094802856
            ],
            "scale" : [
                0.0021810727193951607,
                0.0021810729522258043,
                0.0021810729522258043
            ],
            "translation" : [
                0.008567512035369873,
                0.9175114631652832,
                -0.027580469846725464
            ]
        },
        {
            "mesh" : 4,
            "name" : "Gt7Sj3Sa.004",
            "rotation" : [
                0.7071068286895752,
                0,
                0,
                0.7071067094802856
            ],
            "scale" : [
                0.0021810727193951607,
                0.0021810729522258043,
                0.0021810729522258043
            ],
            "translation" : [
                0.008567512035369873,
                0.9175114631652832,
                -0.027580469846725464
            ]
        }
    ],
    "materials" : [
        {
            "doubleSided" : true,
            "name" : "Material.001",
            "pbrMetallicRoughness" : {
                "baseColorTexture" : {
                    "index" : 0,
                    "texCoord" : 0
                },
                "metallicFactor" : 0,
                "roughnessFactor" : 0.5
            }
        },
        {
            "doubleSided" : true,
            "name" : "Material.004",
            "pbrMetallicRoughness" : {
                "baseColorTexture" : {
                    "index" : 1,
                    "texCoord" : 0
                },
                "metallicFactor" : 0,
                "roughnessFactor" : 0.5
            }
        },
        {
            "doubleSided" : true,
            "name" : "Material.003",
            "pbrMetallicRoughness" : {
                "baseColorTexture" : {
                    "index" : 2,
                    "texCoord" : 0
                },
                "metallicFactor" : 0,
                "roughnessFactor" : 0.5
            }
        },
        {
            "doubleSided" : true,
            "name" : "Material.002",
            "pbrMetallicRoughness" : {
                "baseColorTexture" : {
                    "index" : 3,
                    "texCoord" : 0
                },
                "metallicFactor" : 0,
                "roughnessFactor" : 0.5
            }
        }
    ],
    "meshes" : [
        {
            "name" : "Gt7Sj3Sa",
            "primitives" : [
                {
                    "attributes" : {
                        "POSITION" : 0,
                        "NORMAL" : 1,
                        "TEXCOORD_0" : 2
                    },
                    "indices" : 3,
                    "material" : 0
                }
            ]
        },
        {
            "name" : "Gt7Sj3Sa.001",
            "primitives" : [
                {
                    "attributes" : {
                        "POSITION" : 4,
                        "NORMAL" : 5
                    },
                    "indices" : 6
                }
            ]
        },
        {
            "name" : "Gt7Sj3Sa.002",
            "primitives" : [
                {
                    "attributes" : {
                        "POSITION" : 7,
                        "NORMAL" : 8,
                        "TEXCOORD_0" : 9
                    },
                    "indices" : 10,
                    "material" : 1
                }
            ]
        },
        {
            "name" : "Gt7Sj3Sa.003",
            "primitives" : [
                {
                    "attributes" : {
                        "POSITION" : 11,
                        "NORMAL" : 12,
                        "TEXCOORD_0" : 13
                    },
                    "indices" : 14,
                    "material" : 2
                }
            ]
        },
        {
            "name" : "Gt7Sj3Sa.004",
            "primitives" : [
                {
                    "attributes" : {
                        "POSITION" : 15,
                        "NORMAL" : 16,
                        "TEXCOORD_0" : 17
                    },
                    "indices" : 18,
                    "material" : 3
                }
            ]
        }
    ],
    "textures" : [
        {
            "source" : 0
        },
        {
            "source" : 1
        },
        {
            "source" : 2
        },
        {
            "source" : 2
        }
    ],
    "images" : [
        {
            "bufferView" : 4,
            "mimeType" : "image/png",
            "name" : "Image_0"
        },
        {
            "bufferView" : 12,
            "mimeType" : "image/png",
            "name" : "Image_1"
        },
        {
            "bufferView" : 17,
            "mimeType" : "image/png",
            "name" : "Image_2"
        }
    ],
    "accessors" : [
        {
            "bufferView" : 0,
            "componentType" : 5126,
            "count" : 45366,
            "max" : [
                97.77558898925781,
                164.39938354492188,
                420
            ],
            "min" : [
                -97.77558898925781,
                -236.15280151367188,
                -72.41938781738281
            ],
            "type" : "VEC3"
        },
        {
            "bufferView" : 1,
            "componentType" : 5126,
            "count" : 45366,
            "type" : "VEC3"
        },
        {
            "bufferView" : 2,
            "componentType" : 5126,
            "count" : 45366,
            "type" : "VEC2"
        },
        {
            "bufferView" : 3,
            "componentType" : 5123,
            "count" : 45408,
            "type" : "SCALAR"
        },
        {
            "bufferView" : 5,
            "componentType" : 5126,
            "count" : 802,
            "max" : [
                55,
                57,
                294.79998779296875
            ],
            "min" : [
                -55,
                -53,
                -275.6870422363281
            ],
            "type" : "VEC3"
        },
        {
            "bufferView" : 6,
            "componentType" : 5126,
            "count" : 802,
            "type" : "VEC3"
        },
        {
            "bufferView" : 7,
            "componentType" : 5123,
            "count" : 840,
            "type" : "SCALAR"
        },
        {
            "bufferView" : 8,
            "componentType" : 5126,
            "count" : 560,
            "max" : [
                49,
                51,
                241.44039916992188
            ],
            "min" : [
                -49,
                -47,
                221.44039916992188
            ],
            "type" : "VEC3"
        },
        {
            "bufferView" : 9,
            "componentType" : 5126,
            "count" : 560,
            "type" : "VEC3"
        },
        {
            "bufferView" : 10,
            "componentType" : 5126,
            "count" : 560,
            "type" : "VEC2"
        },
        {
            "bufferView" : 11,
            "componentType" : 5123,
            "count" : 576,
            "type" : "SCALAR"
        },
        {
            "bufferView" : 13,
            "componentType" : 5126,
            "count" : 7288,
            "max" : [
                61,
                117.82518005371094,
                418.5073547363281
            ],
            "min" : [
                -61,
                -20,
                313
            ],
            "type" : "VEC3"
        },
        {
            "bufferView" : 14,
            "componentType" : 5126,
            "count" : 7288,
            "type" : "VEC3"
        },
        {
            "bufferView" : 15,
            "componentType" : 5126,
            "count" : 7288,
            "type" : "VEC2"
        },
        {
            "bufferView" : 16,
            "componentType" : 5123,
            "count" : 7296,
            "type" : "SCALAR"
        },
        {
            "bufferView" : 18,
            "componentType" : 5126,
            "count" : 5856,
            "max" : [
                99.77558898925781,
                0,
                124.71466064453125
            ],
            "min" : [
                -99.77558898925781,
                -100,
                -87.71466064453125
            ],
            "type" : "VEC3"
        },
        {
            "bufferView" : 19,
            "componentType" : 5126,
            "count" : 5856,
            "type" : "VEC3"
        },
        {
            "bufferView" : 20,
            "componentType" : 5126,
            "count" : 5856,
            "type" : "VEC2"
        },
        {
            "bufferView" : 21,
            "componentType" : 5123,
            "count" : 5856,
            "type" : "SCALAR"
        }
    ],
    "bufferViews" : [
        {
            "buffer" : 0,
            "byteLength" : 544392,
            "byteOffset" : 0
        },
        {
            "buffer" : 0,
            "byteLength" : 544392,
            "byteOffset" : 544392
        },
        {
            "buffer" : 0,
            "byteLength" : 362928,
            "byteOffset" : 1088784
        },
        {
            "buffer" : 0,
            "byteLength" : 90816,
            "byteOffset" : 1451712
        },
        {
            "buffer" : 0,
            "byteLength" : 20565,
            "byteOffset" : 1542528
        },
        {
            "buffer" : 0,
            "byteLength" : 9624,
            "byteOffset" : 1563096
        },
        {
            "buffer" : 0,
            "byteLength" : 9624,
            "byteOffset" : 1572720
        },
        {
            "buffer" : 0,
            "byteLength" : 1680,
            "byteOffset" : 1582344
        },
        {
            "buffer" : 0,
            "byteLength" : 6720,
            "byteOffset" : 1584024
        },
        {
            "buffer" : 0,
            "byteLength" : 6720,
            "byteOffset" : 1590744
        },
        {
            "buffer" : 0,
            "byteLength" : 4480,
            "byteOffset" : 1597464
        },
        {
            "buffer" : 0,
            "byteLength" : 1152,
            "byteOffset" : 1601944
        },
        {
            "buffer" : 0,
            "byteLength" : 20559,
            "byteOffset" : 1603096
        },
        {
            "buffer" : 0,
            "byteLength" : 87456,
            "byteOffset" : 1623656
        },
        {
            "buffer" : 0,
            "byteLength" : 87456,
            "byteOffset" : 1711112
        },
        {
            "buffer" : 0,
            "byteLength" : 58304,
            "byteOffset" : 1798568
        },
        {
            "buffer" : 0,
            "byteLength" : 14592,
            "byteOffset" : 1856872
        },
        {
            "buffer" : 0,
            "byteLength" : 20565,
            "byteOffset" : 1871464
        },
        {
            "buffer" : 0,
            "byteLength" : 70272,
            "byteOffset" : 1892032
        },
        {
            "buffer" : 0,
            "byteLength" : 70272,
            "byteOffset" : 1962304
        },
        {
            "buffer" : 0,
            "byteLength" : 46848,
            "byteOffset" : 2032576
        },
        {
            "buffer" : 0,
            "byteLength" : 11712,
            "byteOffset" : 2079424
        }
    ],
    "buffers" : [
        {
            "byteLength" : 2091136,
            "uri" : "data:application/octet-stream;base64,"
        }
    ]
}
