{
    "asset" : {
        "generator" : "Khronos glTF Blender I/O v0.9.36",
        "version" : "2.0"
    },
    "scene" : 0,
    "scenes" : [
        {
            "name" : "Scene",
            "nodes" : [
                0,
                1,
                2
            ]
        }
    ],
    "nodes" : [
        {
            "name" : "Light",
            "rotation" : [
                0.16907575726509094,
                0.7558803558349609,
                -0.27217137813568115,
                0.570947527885437
            ],
            "translation" : [
                4.076245307922363,
                5.903861999511719,
                -1.0054539442062378
            ]
        },
        {
            "name" : "Camera",
            "rotation" : [
                0.483536034822464,
                0.33687159419059753,
                -0.20870360732078552,
                0.7804827094078064
            ],
            "translation" : [
                7.358891487121582,
                4.958309173583984,
                6.925790786743164
            ]
        },
        {
            "mesh" : 0,
            "name" : "Prueba",
            "scale" : [
                0.003147003473713994,
                0.003147003473713994,
                0.003147003473713994
            ],
            "translation" : [
                0.0322403684258461,
                0.29066944122314453,
                0.07042009383440018
            ]
        }
    ],
    "materials" : [
        {
            "doubleSided" : true,
            "name" : "Material.001",
            "pbrMetallicRoughness" : {
                "baseColorTexture" : {
                    "index" : 0,
                    "texCoord" : 0
                },
                "metallicFactor" : 0,
                "roughnessFactor" : 0.5
            }
        }
    ],
    "meshes" : [
        {
            "name" : "Prueba",
            "primitives" : [
                {
                    "attributes" : {
                        "POSITION" : 0,
                        "NORMAL" : 1,
                        "TEXCOORD_0" : 2
                    },
                    "indices" : 3,
                    "material" : 0
                },
                {
                    "attributes" : {
                        "POSITION" : 4,
                        "NORMAL" : 5,
                        "TEXCOORD_0" : 6
                    },
                    "indices" : 7,
                    "material" : 0
                },
                {
                    "attributes" : {
                        "POSITION" : 8,
                        "NORMAL" : 9,
                        "TEXCOORD_0" : 10
                    },
                    "indices" : 11,
                    "material" : 0
                }
            ]
        }
    ],
    "textures" : [
        {
            "source" : 0
        }
    ],
    "images" : [
        {
            "bufferView" : 4,
            "mimeType" : "image/png",
            "name" : "Material"
        }
    ],
    "accessors" : [
        {
            "bufferView" : 0,
            "componentType" : 5126,
            "count" : 65534,
            "max" : [
                99.50157165527344,
                88.31022644042969,
                27
            ],
            "min" : [
                -99.37354278564453,
                -70.15623474121094,
                -311.04730224609375
            ],
            "type" : "VEC3"
        },
        {
            "bufferView" : 1,
            "componentType" : 5126,
            "count" : 65534,
            "type" : "VEC3"
        },
        {
            "bufferView" : 2,
            "componentType" : 5126,
            "count" : 65534,
            "type" : "VEC2"
        },
        {
            "bufferView" : 3,
            "componentType" : 5123,
            "count" : 65655,
            "type" : "SCALAR"
        },
        {
            "bufferView" : 5,
            "componentType" : 5126,
            "count" : 18251,
            "max" : [
                50.299888610839844,
                39.57699966430664,
                22.979400634765625
            ],
            "min" : [
                -50.299869537353516,
                -30.09520149230957,
                -269.5747985839844
            ],
            "type" : "VEC3"
        },
        {
            "bufferView" : 6,
            "componentType" : 5126,
            "count" : 18251,
            "type" : "VEC3"
        },
        {
            "bufferView" : 7,
            "componentType" : 5126,
            "count" : 18251,
            "type" : "VEC2"
        },
        {
            "bufferView" : 8,
            "componentType" : 5123,
            "count" : 18378,
            "type" : "SCALAR"
        },
        {
            "bufferView" : 9,
            "componentType" : 5126,
            "count" : 3,
            "max" : [
                -36.43128967285156,
                -23.92300033569336,
                -68.68116760253906
            ],
            "min" : [
                -39.9999885559082,
                -24.32940101623535,
                -69.63739013671875
            ],
            "type" : "VEC3"
        },
        {
            "bufferView" : 10,
            "componentType" : 5126,
            "count" : 3,
            "type" : "VEC3"
        },
        {
            "bufferView" : 11,
            "componentType" : 5126,
            "count" : 3,
            "type" : "VEC2"
        },
        {
            "bufferView" : 12,
            "componentType" : 5123,
            "count" : 3,
            "type" : "SCALAR"
        }
    ],
    "bufferViews" : [
        {
            "buffer" : 0,
            "byteLength" : 786408,
            "byteOffset" : 0
        },
        {
            "buffer" : 0,
            "byteLength" : 786408,
            "byteOffset" : 786408
        },
        {
            "buffer" : 0,
            "byteLength" : 524272,
            "byteOffset" : 1572816
        },
        {
            "buffer" : 0,
            "byteLength" : 131310,
            "byteOffset" : 2097088
        },
        {
            "buffer" : 0,
            "byteLength" : 44804,
            "byteOffset" : 2228400
        },
        {
            "buffer" : 0,
            "byteLength" : 219012,
            "byteOffset" : 2273204
        },
        {
            "buffer" : 0,
            "byteLength" : 219012,
            "byteOffset" : 2492216
        },
        {
            "buffer" : 0,
            "byteLength" : 146008,
            "byteOffset" : 2711228
        },
        {
            "buffer" : 0,
            "byteLength" : 36756,
            "byteOffset" : 2857236
        },
        {
            "buffer" : 0,
            "byteLength" : 36,
            "byteOffset" : 2893992
        },
        {
            "buffer" : 0,
            "byteLength" : 36,
            "byteOffset" : 2894028
        },
        {
            "buffer" : 0,
            "byteLength" : 24,
            "byteOffset" : 2894064
        },
        {
            "buffer" : 0,
            "byteLength" : 6,
            "byteOffset" : 2894088
        }
    ],
    "buffers" : [
        {
            "byteLength" : 2894096,
            "uri" : "data:application/octet-stream;base64,"
        }
    ]
}
